<?xml version="1.0" encoding="utf-8"?>
<!-- Generator: Adobe Illustrator 21.0.0, SVG Export Plug-In . SVG Version: 6.00 Build 0)  -->
<svg version="1.1" id="Слой_1" xmlns="http://www.w3.org/2000/svg" xmlns:xlink="http://www.w3.org/1999/xlink" x="0px" y="0px"
	 width="72px" height="76px" viewBox="0 0 72 76" style="enable-background:new 0 0 72 76;" xml:space="preserve">
<style type="text/css">
	.st0{fill:#969492;}
	.st1{fill:#FFFFFF;}
	.st2{fill:#FF6419;}
</style>
<polygon class="st0" points="68,52 62,62 54,68 46,70 36,72 26,70 18,68 12,62 6,56 2,46 0,36 0,40 2,50 3.5,54.6 6,60 10.4,65.1 
	16,70 26,74 36,76 46,74 51.3,72.2 56,70 62,66 65.6,60.9 68,56 70,50 72,40 72,36 70,46 "/>
<polygon class="st1" points="72,36 70,46 68,52 62,62 54,68 46,70 36,72 26,70 18,68 12,62 6,56 2,46 0,36 1.6,25.4 5.2,18.1 
	10.6,10.6 18.3,4.8 27,1.6 36,0 45.7,1.2 54.3,5 61.8,10.6 67.5,18 70.7,26.9 "/>
<polygon class="st2" points="26,18 26,54 54,36 "/>
</svg>
