<?xml version="1.0" encoding="utf-8"?>
<!-- Generator: Adobe Illustrator 21.0.0, SVG Export Plug-In . SVG Version: 6.00 Build 0)  -->
<svg version="1.1" id="Layer_6" xmlns="http://www.w3.org/2000/svg" xmlns:xlink="http://www.w3.org/1999/xlink" x="0px" y="0px"
	 width="400px" height="446px" viewBox="0 0 400 446" style="enable-background:new 0 0 400 446;" xml:space="preserve">
<style type="text/css">
	.st0{fill:#DDD7CF;}
	.st1{fill:#E6551E;}
	.st2{fill:#D74A1B;}
	.st3{fill:#FF8221;}
	.st4{fill:#F97420;}
	.st5{fill:none;}
	.st6{fill:#A0A854;}
	.st7{fill:#A8B45E;}
	.st8{fill:#EFA867;}
	.st9{fill:url(#SVGID_1_);}
	.st10{fill:#FFC589;}
	.st11{fill:#F9BB85;}
	.st12{fill:#FFFFFF;}
	.st13{fill:#527088;}
	.st14{fill:#38364B;}
	.st15{opacity:0.42;fill:#FFFFFF;enable-background:new    ;}
	.st16{fill:url(#SVGID_2_);}
	.st17{fill:#A46B58;}
	.st18{fill:url(#SVGID_3_);}
	.st19{fill:url(#SVGID_4_);}
	.st20{fill:url(#SVGID_5_);}
	.st21{opacity:0.31;}
	.st22{fill:#FF8D7E;}
	.st23{fill:#CE7B49;}
	.st24{opacity:0.22;fill:#FFFFFF;enable-background:new    ;}
</style>
<g>
	<path class="st0" d="M366.7,312.9c18.5-7.4,33.3-19,33.3-19c-0.4-0.2-0.8-0.4-1.2-0.6c0,0,0,0-0.1,0c-18.8-8.8-28.8-18-34-24.3
		c0.3-0.2,0.6-0.5,0.9-0.7c0.3-0.3,0.7-0.5,1-0.8c0.5-0.4,1-0.8,1.5-1.3c0.3-0.2,0.6-0.5,0.8-0.7c0.4-0.4,0.9-0.8,1.3-1.2
		c0.3-0.3,0.6-0.5,0.9-0.8c0.4-0.4,0.8-0.8,1.3-1.2c0.2-0.2,0.4-0.4,0.6-0.6c0.5-0.5,1-1.1,1.5-1.6c0.2-0.2,0.4-0.4,0.5-0.6
		c0.5-0.6,1-1.1,1.5-1.7c0.2-0.2,0.3-0.4,0.5-0.5c0.5-0.6,1-1.2,1.5-1.8c0.1-0.1,0.2-0.3,0.3-0.4c0.5-0.6,0.9-1.2,1.4-1.8
		c0.1-0.1,0.1-0.2,0.2-0.3c0.5-0.7,0.9-1.4,1.4-2.1c0.1-0.1,0.2-0.3,0.3-0.4c0.4-0.7,0.9-1.4,1.3-2.1c0.1-0.1,0.1-0.3,0.2-0.4
		c0.4-0.7,0.8-1.5,1.2-2.2c0-0.1,0.1-0.1,0.1-0.2c0.8-1.6,1.5-3.2,2.1-4.9c0,0,0-0.1,0-0.1c0,0,0,0,0,0c2.9-7.7,4-16.2,2.7-25.6
		c-3.9-29.9-14.6-49-24.8-61l29.1-21.7l0,0l0,0c0,0-30.1-25.6-50.7-11.5c0,0,14.2-26-3.5-55.2L321.1,84l-4.6,4.5
		c-2.6-7.7-9.2-16.9-24-26.4C254.4,37.8,227.2,32.4,220.8,0c0,0-40.5,12.2-45.1,48.3c-10.9-5-21.6-10.7-30.8-17.2
		c0,0,0.1,0.1,0.1,0.1c-11.5-8-20.6-17.1-25.1-27.1c0,0,0,0,0,0c0,0,0,0,0,0s-48.3,61.6-10.2,92.3L68.1,67.1c0,0-7.7,39.7,10.1,85.8
		c-7.3,1.2-14,6.4-18.8,18.6c-13.1,32.9,27.2,37,48.5,37c-0.1,0.4-0.2,0.8-0.3,1.2c-12.7,4.7-32.9,6.1-58.9-12
		c0,0,1.5,10.6,6.3,23.5c12.7,36.1,33.2,46,49.4,47.5c6.1,8.7,13.3,18.3,20.7,27.2l-2.9,3.5c-9-4.4-17.1-5.5-23.9-4.8
		c-12.7-2-45.9-4.4-89.3,13.6v44.7v3.7V446h86.3c4.7-5.4,11.2-13.3,18.2-21.9c-0.9,5.1-1.4,10.2-1.2,15.4c-0.6,1.3-0.4,3.2,0.5,6.5
		h98.6v0c12.9-10.3,16.1-13.5,28.4-27.8l0.4-7.7l6.2-5.5l-7.2-7.9c3.5-2.1,7.1-3.5,11-3.3c25.2,1.2,37.1-6.1,37.6-7.2
		c2-4.7,1.1-8.3-3.2-9.7c-8.3,4.2-13.8,6.5-22.9,4.8c5.4-0.5,17.5-8.6,22.7-14c16.2,1.7,28.8-0.5,28.8-0.5c0,0,0,0,0,0c0,0,0,0,0,0
		c-0.1-0.1-0.3-0.2-0.4-0.3c0,0-0.1,0-0.1,0c-9.1-6.2-15.4-18.2-19.7-31.4c8,3.1,16.7,1.7,25.4-8.6c3.1-3.6,5.2-7,6.6-10.2
		C338.1,321.4,353.4,318.3,366.7,312.9z M220.2,376.3l-11.7,4.8l-13.6-2c0,0-10.2,9.2-25.6,21.3c-2.1-29-7-46.6-11.5-57
		c-0.7-4.3-2-8.9-4.3-13.5l1.9-1.4c0,0,0,0,0,0l10.9-8.4c9.7,3.2,21.1,5.7,32.1,7.1c8,1,16,0.2,23.5-2.1c2.1,5.2,4.6,9.7,7.4,13.7
		c-0.6,0.2-1.2,0.5-1.8,0.9c-4.1,6.9-10.4,15.7-8.3,23.4c1.8,6.5,6.1,10.3,4.1,16.6L220.2,376.3z M233.6,357.7
		c-1.7-1.9-1.7-4.7-1.5-7.3c0.1-1.4,1.6-3.1,2.8-4.7c2.5,2.6,5.2,5,8,7C240.7,355.2,236.7,356.4,233.6,357.7z M259.6,368.3
		c1.1-0.8,2.8-2.6,4.5-4.8c1.8,0.6,3.5,1.1,5.3,1.5C266.3,366.6,263,367.7,259.6,368.3z"/>
	<g>
		<path class="st1" d="M113.7,200.5c0,0-28.1,29.3-74-2.8c0,0,12.8,88.7,80.2,67.4L113.7,200.5z"/>
		<path class="st2" d="M39.7,197.7c0,0,38.3,65.7,77.7,41.2l2.5,26.2C119.9,265.1,58.6,293,39.7,197.7z"/>
		<path class="st1" d="M350.8,261.4c0,0,6.5,17.2,40.1,32.5c0,0-77.3,60.6-99.4-6.7L350.8,261.4z"/>
		<path class="st2" d="M304.3,281.6c4.8,1.1,9.5,2.9,13.9,5.2c32.5,16.3,58.1,11.5,71.6,6.5c0.4,0.2,0.8,0.4,1.2,0.6
			c0,0-77.3,60.6-99.4-6.7L304.3,281.6z"/>
		<path class="st1" d="M274.8,278.6c0,0,1.8,70.9,29.4,88.6c0,0-72.6,12.5-92.6-45.6L274.8,278.6z"/>
		<path class="st2" d="M211.5,321.6l24.9-16.9c21.2,42.9,53.8,57.7,67.3,62.2c0.1,0.1,0.3,0.2,0.4,0.3
			C304.1,367.1,231.6,379.6,211.5,321.6z"/>
		<g>
			<path class="st3" d="M254,97.8l-15.7-25c0,0-108-24.9-127.4-68.6c0,0-48.5,61.8-10,92.5L59.1,67.1c0,0-17.8,91.6,63.1,158
				l66.3,2.6L254,97.8z"/>
			<path class="st4" d="M100.9,96.7c-38.5-30.7,10-92.5,10-92.5s0.1,0.2,0.1,0.2c-16.1,68.8,41.9,120.9,41.9,120.9
				s-14.6,7.4-54.1-29.8c-0.4-0.4-0.8-0.8-1.2-1.2L100.9,96.7z"/>
			<path class="st4" d="M244.5,116.7c-61-36-100.9-77.3-108.6-85.6c38.3,26.8,102.5,41.5,102.5,41.5l15.7,25L244.5,116.7z"/>
			<path class="st4" d="M103.2,207.2c-54.4-59-45.9-128.5-44.3-138.8c9,24.7,35.7,88.5,86.1,134.7L103.2,207.2z"/>
			<path class="st5" d="M254,97.8l-15.7-25c0,0-108-24.9-127.4-68.6c0,0-48.5,61.8-10,92.5L59.1,67.1c0,0-17.8,91.6,63.1,158
				l66.3,2.6L254,97.8z"/>
		</g>
		<path class="st6" d="M103.7,446c-3.3-24.5,8.7-46.9,18.5-76.9l18-39.4c0,0,21,16.5,21,101.2L103.7,446z"/>
		<path class="st6" d="M94.8,295.6l-28.2,33C48.1,328,22.9,343,0,356.6v-48.5C55.7,285,94.8,295.6,94.8,295.6z"/>
		<path class="st7" d="M0,352.9c20.3-13.5,66-48.1,66-48.1s27.5-27.5,64.3,6.7s8.6,69.6,8.6,69.6s-37,46.9-52.6,64.9H0V352.9z"/>
		<g>
			<path class="st8" d="M161.2,317.1L136,336.4c0,0-24.3,0.1-29.4-29.1l21.2-25.3L161.2,317.1"/>
			
				<linearGradient id="SVGID_1_" gradientUnits="userSpaceOnUse" x1="2620.394" y1="-2203.5457" x2="2664.6829" y2="-2203.5457" gradientTransform="matrix(-0.71 -0.7 0.7 -0.71 3551.7 615.3931)">
				<stop  offset="0" style="stop-color:#EFA867"/>
				<stop  offset="0.42" style="stop-color:#FFC589"/>
			</linearGradient>
			<path class="st9" d="M146.3,328.5c0,0-25.6-6.7-31.5-31.2l-8.3,9.9c0,0,1.4,27.5,29.4,29.1L146.3,328.5z"/>
		</g>
		<g>
			<path class="st10" d="M278.3,274.8c0,0,62,15.8,31.1,51.9s-60.8-36.4-60.8-36.4L278.3,274.8z"/>
			<path class="st11" d="M275.3,287.4c0,0,37.9,9.8,22.6,25.9c-15.2,16.1-30.7-18.4-30.7-18.4L275.3,287.4z"/>
		</g>
		<g>
			<path class="st10" d="M110.9,174.5c0,0-43.1-47.1-60.6-3s60.8,36.4,60.8,36.4L110.9,174.5z"/>
			<path class="st11" d="M101.2,183.1c0,0-26.4-28.8-33.5-7.8c-7.1,20.9,30.7,18.4,30.7,18.4L101.2,183.1z"/>
		</g>
		<path class="st1" d="M202.4,116.6c0,0-63.5-69.8-103.9,93l9.4,5.6L202.4,116.6z"/>
		<path class="st12" d="M207.6,275.5l-76.8-46.4c-15-9.1-19.8-28.6-10.7-43.5l2.1-3.5c9.1-15,28.6-19.7,43.7-10.7l76.8,46.4
			c15,9.1,19.8,28.6,10.7,43.5l-2.1,3.5C242.2,279.8,222.6,284.6,207.6,275.5z"/>
		<g>
			<path class="st13" d="M208.9,232.3c6.7-10.9,21-14.3,31.9-7.6c10.9,6.7,14.3,21,7.6,31.8s-21,14.3-31.9,7.6
				C205.6,257.5,202.2,243.2,208.9,232.3z"/>
			<path class="st14" d="M213.4,236.7c4.5-7.3,14.2-9.6,21.5-5.1c7.4,4.5,9.7,14.1,5.1,21.5c-4.5,7.3-14.2,9.6-21.5,5.1
				C211.2,253.6,208.9,244,213.4,236.7z"/>
			<path class="st15" d="M231.4,236.4c2.8-4.5,8.8-6,13.3-3.2c4.6,2.8,6,8.7,3.2,13.3c-2.8,4.5-8.8,6-13.3,3.2
				C230,246.9,228.6,241,231.4,236.4z"/>
		</g>
		<g>
			<path class="st13" d="M129.3,184.6c6.6-11,20.9-14.5,31.9-7.9c11,6.6,14.5,20.8,7.9,31.8c-6.6,11-20.9,14.5-31.9,7.9
				C126.2,209.7,122.7,195.5,129.3,184.6z"/>
			<path class="st14" d="M136.7,190.5c4.5-7.4,14.1-9.8,21.5-5.3c7.4,4.4,9.8,14,5.4,21.4c-4.5,7.4-14.1,9.8-21.5,5.3
				C134.6,207.5,132.2,197.9,136.7,190.5z"/>
			<path class="st15" d="M141,182c2.8-4.6,8.7-6.1,13.3-3.3c4.6,2.8,6.1,8.7,3.3,13.3c-2.8,4.6-8.7,6.1-13.3,3.3
				C139.8,192.5,138.3,186.6,141,182z"/>
		</g>
		
			<linearGradient id="SVGID_2_" gradientUnits="userSpaceOnUse" x1="3202.5049" y1="-1597.4548" x2="3202.5049" y2="-1744.7423" gradientTransform="matrix(-0.86 -0.52 0.52 -0.86 3800.5867 477.4264)">
			<stop  offset="0" style="stop-color:#FFA963"/>
			<stop  offset="0.42" style="stop-color:#FFC586"/>
		</linearGradient>
		<path class="st16" d="M95.1,268.3c11.5,16.4,26.8,36.2,40.3,47.5l12.5,0.9c11.4,4.8,26.6,8.7,41.5,10.5c20.9,2.6,41.5-6.9,53-24.5
			c22-33.6,61.1-93.3,75.8-115.2c0,0-32.7-68.6-123.3-58.5c0,0-22.6-21.7-44.2,7.1c-13.4,17.9-38.7,54.2-55.8,79
			C83.8,231.2,83.9,252.4,95.1,268.3z M207.7,235.8c5.1-7.4,16-17.4,29.7-12.4c12.4,4.6,18.7,18.3,14.1,30.6
			c-0.5,1.4-1.1,2.7-1.9,3.9c-0.9,1.5-2,3-3.1,4.3c-2.8,3.3-6.3,5.7-10.4,7.1c-5.5,1.8-11.5,1.7-16.5-1.2c0,0-12.9-5.9-15.9-15.3
			C202.5,248.6,203,242.8,207.7,235.8L207.7,235.8z M126.4,184c6.8-11.2,21.5-14.8,32.8-8c1.2,0.8,2.4,1.6,3.5,2.6
			c10.9,9.7,7.1,24,2.9,32c-3.9,7.4-8.8,10.6-13.2,11.4c-9.7,1.8-21-6.8-21-6.8c-4.9-3.1-7.8-8.3-8.8-13.9
			c-0.7-4.2-0.2-8.5,1.4-12.4C124.7,187.1,125.5,185.5,126.4,184L126.4,184z"/>
		<path class="st17" d="M185,276c-9.4,0-37.9-2.3-44.5-29.2c-0.6-1.4,0.1-3,1.5-3.5c1.4-0.6,3,0.1,3.6,1.5c0.1,0.3,0.2,0.5,0.2,0.8
			c6.8,27.8,41.5,25.1,41.8,25.1c1.5-0.4,2.9,0.5,3.3,2c0.4,1.5-0.5,2.9-2,3.3c-0.3,0.1-0.5,0.1-0.8,0.1
			C188,275.9,186.9,276,185,276z"/>
		
			<linearGradient id="SVGID_3_" gradientUnits="userSpaceOnUse" x1="4559.0254" y1="1283.1572" x2="4662.3853" y2="1172.7411" gradientTransform="matrix(-0.8877 0.2863 -0.1545 -0.9122 4424.5146 9.2214)">
			<stop  offset="0" style="stop-color:#FFA963"/>
			<stop  offset="0.42" style="stop-color:#FFC586"/>
		</linearGradient>
		<path class="st18" d="M114.9,203.9c3.7-6.1,16.7-5,28.9,2.5c12.2,7.5,19.1,18.5,15.4,24.5c-3.7,6.1-16.7,5-28.9-2.5
			S111.2,210,114.9,203.9z"/>
		
			<linearGradient id="SVGID_4_" gradientUnits="userSpaceOnUse" x1="4482.52" y1="1204.4666" x2="4585.8799" y2="1094.0503" gradientTransform="matrix(-0.8877 0.2863 -0.1545 -0.9122 4424.2959 9.5714)">
			<stop  offset="0" style="stop-color:#FFA963"/>
			<stop  offset="0.42" style="stop-color:#FFC586"/>
		</linearGradient>
		<path class="st19" d="M194.7,254.3c3.7-6.1,16.7-5,28.9,2.5c12.2,7.5,19.1,18.5,15.4,24.5c-3.7,6.1-16.7,5-28.9-2.5
			C197.9,271.4,191,260.4,194.7,254.3z"/>
		
			<linearGradient id="SVGID_5_" gradientUnits="userSpaceOnUse" x1="4118.1948" y1="99.0656" x2="4142.54" y2="83.1338" gradientTransform="matrix(-1 0 0 -1 4392.8701 445.2435)">
			<stop  offset="0" style="stop-color:#F99E8A"/>
			<stop  offset="1" style="stop-color:#FFC589"/>
		</linearGradient>
		<path class="st20" d="M210.1,363.1c-2.1-7.7,4.2-16.5,8.3-23.4c4-2.7,7.6,0.1,8.7,2.4c1.1,2.3-3.8,5.8-4,8.4
			c-0.2,2.5-0.1,5.4,1.5,7.3c4.2-1.8,10-3.4,10.8-7.9c1.2-6.3-2.7-7.2-6.9-7.1c-2.2,0-3.1-2.7-3.2-4.7c-0.2-2.4,5.2-8.9,14.3-2.7
			c7.9,5.3,10.5,14.8,3.1,20.9c7-2.3,15.3-11.7,17.4-18.8c3.2-0.9,6.6,2,7.1,5.3c0.6,3.3-12.1,22.2-16.8,25.6
			c8.5-1.5,16.1-6.2,21.3-13.1c3.9,0.4,6.5,4.9,6,8.8s-18.3,16.9-25.2,17.6c9.1,1.7,14.7-0.6,22.9-4.8c4.3,1.3,5.2,5,3.2,9.7
			c-0.5,1.2-12.4,8.4-37.6,7.2c-8.5-0.4-15.5,6.6-22.3,11.7c-1.5-3.7-4.9-6.2-7.4-9.3c-6.5-7.9-0.1-9.4,2.4-15.5
			C216.7,373.7,212,369.9,210.1,363.1z"/>
		<g>
			<path class="st8" d="M228.5,362.5c0,0,0.9,8.7-7.8,12L228.5,362.5z"/>
			<path class="st8" d="M236.2,360.8l6.8,23.9c3.7-9.3,0.9-20-6.8-26.4"/>
		</g>
		<path class="st6" d="M202.3,446c12.9-10.3,16.1-13.5,28.4-27.8l0.4-7.7l6.2-5.5l-26.2-28.7l-11.7,4.8l-13.6-2
			c0,0-35.4,32.1-74.4,54.9c-7.6,4.5-10,3.5-7.8,12L202.3,446L202.3,446z"/>
		<path class="st14" d="M255.9,194c0,0,18.3,7.9,15,24c0,0-12.8-15.9-23.3-15.9c0,0,3.5-8.1,10.1-2.7L255.9,194z"/>
		<path class="st14" d="M186.4,150.5c0,0-14.6-13.5-28.1-4.1c0,0,19.8,5.3,24,14.9c0,0,6.1-6.4-1.5-10.3L186.4,150.5z"/>
		<path class="st11" d="M128.6,298.9c2.2-3.6,8.2-4,13.4-0.9s7.7,8.6,5.5,12.2c-2.2,3.6-8.2,4-13.4,0.9
			C128.9,308,126.4,302.6,128.6,298.9z"/>
		<g class="st21">
			<path class="st22" d="M197.5,267.5c3.1-5.2,14-4.4,24.2,1.8s16,15.3,12.9,20.5s-14,4.4-24.2-1.8S194.3,272.7,197.5,267.5z"/>
		</g>
		<g class="st21">
			<path class="st22" d="M103.7,211.3c3.1-5.2,14-4.4,24.2,1.8c10.2,6.1,16,15.3,12.9,20.5c-3.1,5.2-14,4.4-24.2-1.8
				C106.3,225.7,100.6,216.5,103.7,211.3z"/>
		</g>
		<g class="st21">
			<path class="st22" d="M170.7,220c2.2-3.7,9.9-3.1,17.2,1.2c7.3,4.4,11.4,10.9,9.2,14.6s-9.9,3.1-17.2-1.2
				C172.6,230.2,168.5,223.6,170.7,220z"/>
		</g>
		<polygon class="st23" points="187.8,223.2 167,233.4 182.8,248.3 		"/>
		<path class="st24" d="M176.7,230.8c0.9-1.4,2.7-1.9,4-1.1c1.4,0.8,1.8,2.6,0.9,4.1s-2.7,1.9-4,1.1
			C176.2,234,175.8,232.2,176.7,230.8z"/>
		<g>
			<path class="st3" d="M334.4,136.1c-1,0.4,38,15.5,46.3,78.8c10.3,79-142.1,93.7-142.1,93.7s44.9-135.3,91.7-134.1L334.4,136.1z"
				/>
			<path class="st4" d="M323.2,265l-5,7.1c20.7-0.5,47.2-21,59.6-31.6c-21.2,56.7-139.3,68.1-139.3,68.1s3.8-11.4,10.3-27.4
				C283.2,280.3,323.2,265,323.2,265z"/>
		</g>
		<g>
			<path class="st3" d="M385,132.2c0,0-30.1-25.6-50.7-11.5c0,0,14.2-26-3.5-55.2l-33.4,33.1l8.6,69.1l45.9-10.8L385,132.2z"/>
			<path class="st4" d="M332.9,138.5c22.1-16.5,41.9-11.2,52.1-6.3l0.1,0.1l-33.1,24.7l-23.4,5.5
				C322.5,155.3,321.4,147.1,332.9,138.5z"/>
			<path class="st4" d="M327.6,68.7c1.1,11.4-2,28-18.1,50.5L298.6,108l-1.2-9.4L327.6,68.7z"/>
		</g>
		<g>
			<path class="st3" d="M305.6,109.4c0,0,16-22.8-22.1-47.1S218.2,32.4,211.8,0c0,0-58.4,17.5-42.9,72.9s77.8,65,77.8,65
				S288.9,151.4,305.6,109.4z"/>
			<path class="st4" d="M166.6,48.8c2.5,8.2,14.3,36.9,57.2,33.8c41.1-3,70.1,23.1,79.2,32.5c-0.9,1.8-2,3.6-3.1,5.3
				c-22.8,7.1-46.4,11.4-70.2,12.9c-19.6-7-50.6-23.6-60.8-60.4C166.5,65.1,165.8,56.9,166.6,48.8z"/>
		</g>
		<g>
			<path class="st3" d="M319.2,111.7c0,0-43.1-0.6-65.2-13.9s-89.7-18.6-64.5,89l160.2-5.4L319.2,111.7z"/>
			<path class="st4" d="M189.5,186.7c0-0.1,0-0.2-0.1-0.3c12.2-11.6,44.1-37.4,80.3-29.3c31.6,7,37.7,18.8,38.5,25.6L189.5,186.7z"
				/>
		</g>
		<path class="st12" d="M59.3,387.1c2.1,2,3.2,4.8,3.2,7.7c0.1,2.8-1,5.6-3.1,7.6c-2,2-4.7,3.1-7.5,3c-2.9,0-5.6-1.2-7.6-3.3
			c-2.1-2-3.3-4.7-3.4-7.5c0.1-5.9,4.9-10.6,10.8-10.6C54.5,383.9,57.3,385.1,59.3,387.1z M107.7,363.1c-0.2-6.3-2.6-11.8-7.4-16.6
			c-2.7-2.7-6-4.7-9.7-5.9c-7.7-2.8-16.4-1.2-22.6,4.3l9.8,9.8c6.2-4.2,10.8-0.9,12.7,0.9c1.7,1.7,2.7,4,2.7,6.4
			c0,2.4-0.9,4.8-2.7,6.5c-1.7,1.7-5.4,4.1-11.7,1.7l-4.3-1.7c-2.2-0.9-3.4-1.7-7.1-0.2c-1.3,0.6-5.6,4.7-9.5,8.6l11.8,11.7
			c1.3-1,4.8-5.5,5.9-5.8c1.8-0.5,4.2-0.1,7.6,1.1c6.7,2.3,12.3,0.8,17.9-4.7C105.5,375,107.9,369.1,107.7,363.1L107.7,363.1z"/>
	</g>
</g>
</svg>
