<?xml version="1.0" encoding="utf-8"?>
<!-- Generator: Adobe Illustrator 21.0.0, SVG Export Plug-In . SVG Version: 6.00 Build 0)  -->
<svg version="1.1" id="Слой_1" xmlns="http://www.w3.org/2000/svg" xmlns:xlink="http://www.w3.org/1999/xlink" x="0px" y="0px"
	 width="72px" height="80px" viewBox="0 0 72 80" style="enable-background:new 0 0 72 80;" xml:space="preserve">
<style type="text/css">
	.st0{fill:none;}
	.st1{fill:#95BC00;}
	.st2{fill:#F4F2EC;}
	.st3{fill:#36334A;}
	.st4{fill:#5C2100;}
</style>
<rect x="15" y="-0.8" class="st0" width="43.7" height="80.8"/>
<g>
	<path class="st1" d="M49.2,37.5c-1.6,1.2-3.4,2-4.9,3.4C43,42.2,42,44.3,41.2,46c-0.8,1.8-0.9,3.8-1.1,5.7
		c-0.1,1.5-0.2,3.1-0.1,4.6c-3.8,0-15.8,0-15.8,0s0.1-2.2,0-2.9c-0.1-1.6,0.1-3.2,0.1-4.8c0.1-3,0.4-6.8,2.2-9.3
		c1.9-2.7,3.7-5.1,6.3-7.1c2.5-1.9,5.6-3.7,6.8-6.9c1.1-3,0.2-6.7-3.1-7.7c-2.1-0.7-5.2-0.2-7.2,0.6c-1.1,0.4-2.1,0.9-3.1,1.4
		c-1.2,0.6-2.1,1.6-3,2.6c-2.1-2.8-4.2-5.6-6.1-8.5c-0.5-0.8-2-2.9-2-2.9s1.1-1,1.4-1.2c2.8-2.5,5.5-4.2,9-5.4c3.5-1.2,7.2-2,11-1.9
		C39.6,2.2,43,2.5,46,3.5c3.3,1.1,6.3,2.7,8.6,5.4c2.5,2.8,3.6,5.7,3.9,9.4c0.2,1.8,0.4,3.8,0.1,5.6c-0.3,1.9-1.1,3.8-2,5.5
		C54.9,32.8,52.2,35.3,49.2,37.5z"/>
	<path class="st1" d="M32.1,80c-2.1,0-4.1-1-5.8-2.3c-1.8-1.3-2.8-2.7-3.4-4.8c-0.7-2.2-0.8-4.1-0.1-6.3c0.6-1.8,1.8-3.9,3.2-5.2
		c1.3-1.3,3.7-2,6-2.3c2.1-0.3,4.1,0.3,5.8,1.5c1.9,1.3,3.3,2.7,4,5c0.6,2,0.9,3.9,0.6,6c-0.4,2.6-1.3,4.7-3.5,6.2
		C37,78.9,35,80,32.1,80z"/>
	<path class="st2" d="M33.9,9.5c0.4,2.1-0.3,4.5-2.1,5.8c-2,1.4-4.4,1.1-6.1-0.5c-3.2-3.1-2-9.9,3-10C31.5,4.7,33.4,7,33.9,9.5z"/>
	<path class="st2" d="M38.2,10.1c0.6-2,2.3-3.9,4.5-4.2c2.4-0.4,4.4,1.1,5.1,3.3c1.4,4.2-2.7,9.7-7.2,7.5
		C38.1,15.5,37.4,12.6,38.2,10.1z"/>
	<path class="st3" d="M29.2,10c-0.1-1.2-1-2.5-2.6-2.3c-1.4,0.2-2.7,1.4-2.2,3.5C25.1,15,29.5,13,29.2,10z"/>
	<path class="st3" d="M38.3,11.2c0,1.2,0.8,2.6,2.5,2.5c1.4-0.1,2.8-1.2,2.5-3.3C42.7,6.5,38.2,8.1,38.3,11.2z"/>
	<path class="st4" d="M50.5,5.4c0,0-1.5-4.9-8-3.3l-0.2-0.9c0,0,7.3-2.7,9.2,3.5L50.5,5.4z"/>
	<path class="st4" d="M23.3,4.5c0,0,2.5-4.6,8.2-2.5l0.3-1.1c0,0-5.8-3.1-9.4,3.2L23.3,4.5z"/>
</g>
</svg>
