<?xml version="1.0" encoding="utf-8"?>
<!-- Generator: Adobe Illustrator 21.0.0, SVG Export Plug-In . SVG Version: 6.00 Build 0)  -->
<svg version="1.1" id="Слой_1" xmlns="http://www.w3.org/2000/svg" xmlns:xlink="http://www.w3.org/1999/xlink" x="0px" y="0px"
	 width="72px" height="80px" viewBox="0 0 72 80" style="enable-background:new 0 0 72 80;" xml:space="preserve">
<style type="text/css">
	.st0{fill:#00C193;}
	.st1{fill:#F4F2EC;}
	.st2{fill:#36334A;}
	.st3{fill:#5C2100;}
</style>
<g>
	<g>
		<path class="st0" d="M12.1,24.9c5.6-4.7,12.8-7.9,20.3-7.5c4.1,0.2,7.8,0.6,11.5,2.3c3,1.4,7,3.1,9.3,5.3c2.7,2.7,5.4,5.9,7.3,9.2
			c0.5,0.9,0.9,1.8,1.3,2.8c4.7-1.1,8.6-2.1,10.2-2.5c-2.2,5.9-8.6,24.4-11.2,31.4c-4-3.7-7.6-7.7-11.6-11.4
			C47.3,52.6,38,42.9,38,42.9c1-0.3,5.2-1.4,10.3-2.7c-0.1-0.1-0.1-0.2-0.2-0.3c-1.1-1.6-2.2-3.7-3.7-4.9C38,30,28.2,29.1,21.6,34
			c-6.8,5-9.7,12.6-6.9,20.5c1.2,3.5,4,6.5,6.7,9c2.5,2.2,7.4,3.5,10.8,3.2c2.1-0.2,4.6-0.4,6.6-1c0.9-0.3,2.6-1.3,2.6-1.3l1.2-0.9
			c0,0,6.8,9.3,8.1,10.7c-6.6,4.2-16.1,7.3-24,5.1c-4-1.1-8-1.6-11.4-4c-3.5-2.4-6.6-5.4-9.6-8.3c-4.5-7.5-7.1-15.1-5-23.8
			c0.8-3.5,1.2-6.1,3.8-10.3C7.1,28.9,9.5,27.1,12.1,24.9z"/>
		<g>
			<path class="st1" d="M56.3,47c-0.3-1.5-1.4-3-3.1-3.4c-1.8-0.5-3.4,0.4-4.2,2c-1.4,3,1.2,7.3,4.8,6.1
				C55.9,50.9,56.6,48.8,56.3,47z"/>
			<path class="st2" d="M54.5,47.3c-0.5-2.8-4.4-2.2-3.9,0.6C51,50.8,55,50.1,54.5,47.3z"/>
		</g>
		<g>
			<path class="st1" d="M58,46.6c0.6,1.5,2,2.7,3.7,2.8c1.8,0.1,3.3-1,3.7-2.7c0.8-3.2-2.6-6.9-5.9-5.1C57.7,42.7,57.3,44.9,58,46.6
				z"/>
			<path class="st2" d="M59.8,46c1,2.7,4.7,1.4,3.7-1.3C62.5,41.9,58.7,43.3,59.8,46z"/>
		</g>
		<path class="st3" d="M47.6,45.3c0,0,0.2-3.1,4.4-3.1l0-0.6c0,0-4.8-0.5-5.1,3.3L47.6,45.3z"/>
		<path class="st3" d="M64.1,41c0,0-2.2-2.3-5.4-0.3l-0.3-0.6c0,0,3.1-2.6,6.2,0.5L64.1,41z"/>
	</g>
</g>
</svg>
