<?xml version="1.0" encoding="utf-8"?>
<!-- Generator: Adobe Illustrator 21.0.0, SVG Export Plug-In . SVG Version: 6.00 Build 0)  -->
<svg version="1.1" id="Слой_1" xmlns="http://www.w3.org/2000/svg" xmlns:xlink="http://www.w3.org/1999/xlink" x="0px" y="0px"
	 width="72px" height="80px" viewBox="0 0 72 80" style="enable-background:new 0 0 72 80;" xml:space="preserve">
<style type="text/css">
	.st0{fill:#E03817;}
	.st1{fill:#F4695B;}
	.st2{fill:#381402;}
	.st3{fill:#F4F2EC;}
	.st4{fill:#36334A;}
</style>
<g transform="translate(0 .426)">
	<path class="st0" d="M70.8,45.7L69,34.3l-10,0.3c-0.6-1.7-1.5-3.3-2.7-4.7l4.7-8L52.2,15L45.9,22c-1.9-0.9-3.9-1.4-6-1.7L37.4,11
		l-11,1.5l0.3,9.6c-2.3,0.9-4.4,2.2-6.3,3.8l-8.8-4.5L5.7,30l7.1,6.3c-0.7,1.8-1.2,3.6-1.5,5.5l-9.6,3.5l1.5,10.6l10.2,0.2
		c0.8,1.8,1.9,3.5,3.1,5l-4.2,8.9l9.2,6.5l7.3-7c2,0.6,4.1,1,6.1,1.1l3.5,8.9l12.4-3.4l-1.8-9c1.6-0.9,3.1-2,4.5-3.3l8,4.3l6.6-9.3
		l-7.6-6.3c0.4-1.4,0.7-2.9,0.9-4.4L70.8,45.7z"/>
	<polygon class="st1" points="56.2,45.1 54.8,51 52.3,56.5 48.2,61.1 42.5,63.9 36.5,64.9 30.3,63.7 24.9,60.6 20.5,56.4 17.8,51 
		16.8,45.1 17.8,38.9 20.3,33.6 24.7,29.6 30.2,26.4 36.3,25.6 42.5,26.3 47.9,29.4 52.6,33.5 55.4,39 	"/>
	<path class="st2" d="M46.9,38.8c0,0-3.4-2.7-7.3,1.6L39,39.8c0,0,4-5.4,8.2-2L46.9,38.8z M24.4,40.3c1.7-2.3,4.8-2.9,7.3-1.6
		l0.3-0.9c-1.4-0.8-3-1.1-4.6-0.7c-1.6,0.4-2.9,1.4-3.7,2.8L24.4,40.3z"/>
	<path class="st3" d="M33.9,46.3c0,0-0.1-1.1-0.2-1.5c-0.1-0.4-0.5-1.4-0.5-1.4s-0.5-1-0.7-1.3c-0.2-0.3-1-1.1-1-1.1
		c-0.4-0.3-0.8-0.5-1.2-0.7c-0.4-0.1-0.9-0.2-1.3-0.3c-0.4,0-0.9,0.1-1.3,0.1c-0.4,0.2-0.9,0.4-1.3,0.7c0,0-0.8,0.8-1,1.1
		s-0.8,1.3-0.8,1.3s-0.3,1.1-0.4,1.5S24,46.3,24,46.3s0.1,1.1,0.2,1.5c0.1,0.4,0.4,1.4,0.4,1.4c0.2,0.5,0.4,0.9,0.7,1.3
		c0.3,0.3,0.7,0.7,1.1,0.9c0.4,0.3,0.8,0.6,1.2,0.8c0.4,0.1,0.9,0.2,1.3,0.2c0.4,0,0.9-0.1,1.3-0.2c0.4-0.2,0.8-0.5,1.2-0.7
		c0,0,0.8-0.7,1.1-1c0.3-0.4,0.5-0.9,0.8-1.3c0,0,0.3-1.1,0.4-1.5C33.8,47.4,33.9,46.3,33.9,46.3z"/>
	<path class="st4" d="M33.9,46.3c0,0-0.1-1.1-0.2-1.5c-0.1-0.4-0.5-1.4-0.5-1.4s-0.5-1-0.7-1.3c-0.2-0.3-1-1.1-1-1.1
		c-1.8-1.1-3.7,2.3-3.7,5.3c0,3,1.8,6.4,3.7,5.2c0,0,0.8-0.7,1.1-1c0.3-0.4,0.5-0.9,0.8-1.3c0,0,0.3-1.1,0.4-1.5
		C33.8,47.3,33.9,46.3,33.9,46.3z"/>
	<path class="st3" d="M49.8,46.3c0,0-0.1-1.1-0.2-1.5c-0.1-0.4-0.5-1.4-0.5-1.4s-0.5-1-0.7-1.3c-0.2-0.3-1-1.1-1-1.1
		c-0.4-0.3-0.8-0.5-1.2-0.7c-0.4-0.1-0.9-0.2-1.3-0.3c-0.4,0-0.9,0.1-1.3,0.1c-0.4,0.2-0.9,0.4-1.3,0.7c0,0-0.8,0.8-1,1.1
		s-0.8,1.3-0.8,1.3s-0.3,1.1-0.4,1.5S40,46.3,40,46.3s0.1,1.1,0.2,1.5c0.1,0.4,0.4,1.4,0.4,1.4c0.2,0.5,0.4,0.9,0.7,1.3
		c0.3,0.3,0.7,0.7,1.1,0.9c0.4,0.3,0.8,0.6,1.2,0.8c0.4,0.1,0.9,0.2,1.3,0.2c0.4,0,0.9-0.1,1.3-0.2c0.4-0.2,0.8-0.5,1.2-0.7
		c0,0,0.8-0.7,1.1-1c0.3-0.4,0.5-0.9,0.8-1.3c0,0,0.3-1.1,0.4-1.5C49.7,47.4,49.8,46.3,49.8,46.3z"/>
	<path class="st4" d="M49.8,46.3c0,0-0.1-1.1-0.2-1.5c-0.1-0.4-0.5-1.4-0.5-1.4s-0.5-1-0.7-1.3c-0.2-0.3-1-1.1-1-1.1
		c-1.8-1.1-3.7,2.3-3.7,5.3c0,3,1.8,6.4,3.7,5.2c0,0,0.8-0.7,1.1-1c0.3-0.4,0.5-0.9,0.8-1.3c0,0,0.3-1.1,0.4-1.5
		C49.7,47.3,49.8,46.3,49.8,46.3z"/>
</g>
</svg>
