<?xml version="1.0" encoding="utf-8"?>
<!-- Generator: Adobe Illustrator 21.0.0, SVG Export Plug-In . SVG Version: 6.00 Build 0)  -->
<svg version="1.1" id="Слой_1" xmlns="http://www.w3.org/2000/svg" xmlns:xlink="http://www.w3.org/1999/xlink" x="0px" y="0px"
	 width="72px" height="80px" viewBox="0 0 72 80" style="enable-background:new 0 0 72 80;" xml:space="preserve">
<style type="text/css">
	.st0{fill:#00A2D0;}
	.st1{fill:#F4F2EC;}
	.st2{fill:#36334A;}
	.st3{fill:#7A2E00;}
</style>
<g>
	<path class="st0" d="M70.7,19.4l-4.5-0.2l-4.6,0.1l-13.9-0.1l-13.9,0.1L25,19.7l-0.4,8.6l-0.2,9.1l0.5,18.2l-0.1,4.6
		c0,0-2-1.9-4.7-2.8c-5.5-1.8-10.1-0.7-14.7,2.4c-2,1.4-4.6,4-4.6,8.7c0,4.8,3.7,7.7,4.7,8.4c1,0.7,3.2,2,4.4,2.3
		c6.7,1.5,11.4-0.4,14.3-2.3c1-0.7,2.6-2.7,3.1-3.8c1.9-4.1,1.7-9.6,1.7-9.6l-0.1-30.6l4.6-0.1l9.5-0.1l24,0l0.3,5.1L67,60.2
		c0,0-3.2-3.6-10.1-3.6c-9.7,0-13.6,6.1-13.7,11.8c-0.1,4.6,1.9,6.5,4.3,8.6c2.6,2.2,4.4,3,9.4,3c7.1,0,11.8-4.6,12.9-6.7
		c1.6-3.1,0.9-10,0.9-10L71,45.7l-0.1-17.5L70.7,19.4z"/>
	<g>
		<path class="st1" d="M22.6,68.7c-0.6,5.1-3.8,8.1-8.5,7.7c-5.4-0.4-8.5-3.5-8.5-7.7c0-4.3,2.5-7.2,8.5-7.7
			C18.7,60.5,23,64.5,22.6,68.7z"/>
		<path class="st2" d="M8.4,74.6c-1.9-1.4-2.9-3.4-2.9-5.9c0-2.1,0.6-3.9,1.9-5.2c1.1-1.1,5.7,0.7,6.1,5.5
			C14.1,73.5,9.9,75.7,8.4,74.6z"/>
	</g>
	<g>
		<path class="st1" d="M65.2,68.7c-0.6,5.1-3.8,8.1-8.5,7.7c-5.4-0.4-8.5-3.5-8.5-7.7c0-4.3,2.5-7.2,8.5-7.7
			C61.3,60.5,65.6,64.5,65.2,68.7z"/>
		<path class="st2" d="M51,74.6c-1.9-1.4-2.9-3.4-2.9-5.9c0-2.1,0.6-3.9,1.9-5.2c1.1-1.1,5.7,0.7,6.1,5.5
			C56.7,73.5,52.6,75.7,51,74.6z"/>
	</g>
	<path class="st3" d="M65.2,57.8c0,0-1.5-4.5-8-2.4l-0.3-1c0,0,7.1-3.2,9.5,2.8L65.2,57.8z"/>
	<path class="st3" d="M14.3,55.1c0,0,4.3-2.6,8.1,2l0.9-0.9c0,0-3.5-5.6-9.8-2.2L14.3,55.1z"/>
</g>
</svg>
