<?xml version="1.0" encoding="utf-8"?>
<!-- Generator: Adobe Illustrator 21.0.0, SVG Export Plug-In . SVG Version: 6.00 Build 0)  -->
<svg version="1.1" id="Слой_1" xmlns="http://www.w3.org/2000/svg" xmlns:xlink="http://www.w3.org/1999/xlink" x="0px" y="0px"
	 width="72px" height="80px" viewBox="0 0 72 80" style="enable-background:new 0 0 72 80;" xml:space="preserve">
<style type="text/css">
	.st0{fill:#FF6419;}
	.st1{fill:#5C2100;}
	.st2{fill:#F4F2EC;}
	.st3{fill:#36334A;}
</style>
<g>
	<path class="st0" d="M71,29.8l-17.4-0.1l-0.3-0.6c1.3-1.7,2.1-3.8,2.1-6c0-5.6-4.1-10.7-9.8-10.7c-6.8,0-10.7,5.2-10.7,10.7
		c0,2.2,1,4.6,2.3,6.3l-0.2,0.7l-18.3,0l0,16.6l-0.6,0.2c-1.7-1.3-3.8-2-6.2-2c-5.7,0-10.9,4-10.9,9.6C1,61,6.3,64.9,11.9,64.9
		c2.2,0,4.7-1,6.4-2.3l0.6,0.1L19.1,80l16.2,0l24,0c1,0,7.6-0.2,9.5-2.3c1.9-2.1,1.7-9,1.7-9.9c0.1-3.6,0.4-14.5,0.4-14.5V29.8z"/>
	<path class="st1" d="M58,44.9c0,0-3.2-4.2-9.1-0.3l-0.5-0.8c0,0,6.2-5.2,10.3,0.1L58,44.9z"/>
	<path class="st1" d="M30.2,44.8c0,0,3.9-3.8,9-0.1l0.6-1c0,0-5-4.8-10.4,0.4L30.2,44.8z"/>
	<g>
		<path class="st2" d="M41.2,55c-0.4,5.1-2.7,8.1-6.1,7.8C31.3,62.5,29,59.3,29,55s1.8-7.2,6.1-7.8C38.4,46.8,41.5,50.7,41.2,55z"/>
		<path class="st2" d="M58.7,55c-0.4,5.1-2.7,8.1-6.1,7.8c-3.8-0.4-6.1-3.5-6.1-7.8s1.8-7.2,6.1-7.8C56,46.8,59.1,50.7,58.7,55z"/>
		<g>
			<path class="st3" d="M40.6,51.3c-0.6-1.1-1.5-1.9-2.4-1.8c-2.4,0.3-3.3,3.2-3.3,5.5c0,2.4,1.2,5.1,3.3,5.3
				c0.8,0.1,1.6-0.5,2.1-1.3c0.4-1.1,0.7-2.5,0.9-4C41.3,53.7,41,52.4,40.6,51.3z"/>
		</g>
		<g>
			<path class="st3" d="M55.8,49.5c-1.8-0.2-3.1,2.7-3.3,5.5c-0.2,2.3,1.5,5.6,3.3,5.3c0.9-0.1,1.5-0.5,2-1.1
				c0.5-1.2,0.8-2.6,0.9-4.2c0.1-1.3-0.1-2.5-0.5-3.6C57.6,50.4,56.8,49.6,55.8,49.5z"/>
		</g>
	</g>
</g>
</svg>
