<?xml version="1.0" encoding="utf-8"?>
<!-- Generator: Adobe Illustrator 21.0.0, SVG Export Plug-In . SVG Version: 6.00 Build 0)  -->
<svg version="1.1" xmlns="http://www.w3.org/2000/svg" xmlns:xlink="http://www.w3.org/1999/xlink" x="0px" y="0px" width="200px"
	 height="340px" viewBox="0 0 200 340" style="enable-background:new 0 0 200 340;" xml:space="preserve">
<g id="Голова_x5F_2" style="display:none;">
	<g style="display:inline;">
		<g>
			<path style="fill:#E6551E;" d="M30.7,224.1c0,0-11.2,8.8-39.6,5.5c0,0,26.7,71.1,68.3,35.3L30.7,224.1z"/>
			<g>
				<defs>
					<path id="SVGID_1_" d="M30.7,224.1c0,0-11.2,8.8-39.6,5.5c0,0,26.7,71.1,68.3,35.3L30.7,224.1z"/>
				</defs>
				<clipPath id="SVGID_2_">
					<use xlink:href="#SVGID_1_"  style="overflow:visible;"/>
				</clipPath>
				<path style="clip-path:url(#SVGID_2_);fill:#D74A1B;" d="M53.3,256.2c-2.8-1-6.4-1.7-11.2-2.1c-28-2.2-43-15.6-49.9-24.4
					c-0.4,0-0.7-0.1-1-0.1c0,0,26.7,71.1,68.3,35.3L53.3,256.2z"/>
			</g>
		</g>
		<g>
			<path style="fill:#FF8221;" d="M160.4,154.4l20.4-10.3c0,0,81.4,26.8,111.7,5.6c0,0,7.2,60.4-30.6,65.3l39.5-2.8
				c0,0-25,67.8-105.2,79.5l-44.9-24.8L160.4,154.4z"/>
			<path style="fill:#F97420;" d="M159.1,170.8c54.8,0.6,97.8-10.8,106.2-13.2c-36.1,2.4-84.4-13.5-84.4-13.5l-20.4,10.3
				L159.1,170.8z"/>
			<path style="fill:#F97420;" d="M216.1,287.4c59.6-17.3,82-66.8,85-74.2c-15.9,12.8-59.1,44.4-111,54.8L216.1,287.4z"/>
			<path style="fill:none;" d="M160.4,154.4l20.4-10.3c0,0,81.4,26.8,111.7,5.6c0,0,7.2,60.4-30.6,65.3l39.5-2.8
				c0,0-25,67.8-105.2,79.5l-44.9-24.8L160.4,154.4z"/>
		</g>
		<g>
			<path style="fill:#E6551E;" d="M211.8,278.7c0,0,6.8,30.7,50,27.8c0,0-44.1,53.7-80.1,12.6L211.8,278.7z"/>
			<path style="fill:#D74A1B;" d="M261.9,306.5c0,0-51.7,28.2-67.9-3.8L181.8,319C181.8,319,211.1,362.1,261.9,306.5z"/>
		</g>
		<g>
			<path style="fill:#FFC589;" d="M73.2,258.7c0,0-47.3-14.3-41.4,22s54.8,0.2,54.8,0.2L73.2,258.7z"/>
		</g>
		<path style="fill:#FFBB7A;" d="M70,268.3c0,0-28.9-8.6-25.2,8s27.5,0,27.5,0L70,268.3z"/>
		<g>
			<path style="fill:#E6551E;" d="M74,265.9c0,0-29.7,46.3-55,47c0,0,42.9,37.4,79.5,6.9L74,265.9z"/>
			<g>
				<defs>
					<path id="SVGID_3_" d="M74,265.9c0,0-29.7,46.3-55,47c0,0,42.9,37.4,79.5,6.9L74,265.9z"/>
				</defs>
				<clipPath id="SVGID_4_">
					<use xlink:href="#SVGID_3_"  style="overflow:visible;"/>
				</clipPath>
				<path style="clip-path:url(#SVGID_4_);fill:#D74A1B;" d="M98.6,319.8l-9.6-21.2c-31.2,19.9-58.7,16.7-69.5,14.2
					c-0.1,0-0.3,0-0.4,0C19,312.9,62,350.2,98.6,319.8z"/>
			</g>
		</g>
		<path style="fill:#E6551E;" d="M186.9,184.3c0,0,70-20.8,31.3,103.2l-8.5,0L186.9,184.3z"/>
		<path style="fill:#FFFFFF;" d="M189,287.5h-69.4c-13.5,0-24.6-11-24.6-24.6v-3.2c0-13.5,11-24.6,24.6-24.6H189
			c13.5,0,24.6,11,24.6,24.6v3.2C213.6,276.5,202.5,287.5,189,287.5z"/>
		<g>
			
				<ellipse transform="matrix(1 -6.107461e-03 6.107461e-03 1 -1.5765 0.7264)" style="fill:#527088;" cx="118.1" cy="258.5" rx="17.9" ry="17.9"/>
			
				<ellipse transform="matrix(1 -6.107461e-03 6.107461e-03 1 -1.5828 0.7336)" style="fill:#38364B;" cx="119.3" cy="259.5" rx="12.1" ry="12.1"/>
			
				<ellipse transform="matrix(1 -6.107461e-03 6.107461e-03 1 -1.5378 0.6894)" style="opacity:0.42;fill:#FFFFFF;" cx="112.1" cy="252.1" rx="7.5" ry="7.5"/>
		</g>
		<g>
			<g>
				
					<ellipse transform="matrix(3.565586e-03 -1 1 3.565586e-03 -69.2284 447.5626)" style="fill:#527088;" cx="190" cy="258.5" rx="17.9" ry="17.9"/>
				
					<ellipse transform="matrix(3.565586e-03 -1 1 3.565586e-03 -71.6413 447.1472)" style="fill:#38364B;" cx="188.6" cy="259.5" rx="12.1" ry="12.1"/>
				
					<ellipse transform="matrix(3.565586e-03 -1 1 3.565586e-03 -59.1499 444.9449)" style="opacity:0.42;fill:#FFFFFF;" cx="193.7" cy="252.2" rx="7.5" ry="7.5"/>
			</g>
		</g>
		<g>
			<path style="fill:#EFA867;" d="M132.3,328.5l3.2,24.3c0,0,13.2,13.3,32.1,0.1l2.3-25.4L132.3,328.5"/>
		</g>
		
			<linearGradient id="SVGID_5_" gradientUnits="userSpaceOnUse" x1="121.5057" y1="-105.8814" x2="121.883" y2="-78.1937" gradientTransform="matrix(1 0 0 -1 0 201.2561)">
			<stop  offset="0" style="stop-color:#EFA867"/>
			<stop  offset="0.42" style="stop-color:#FFC589"/>
		</linearGradient>
		<path style="fill:url(#SVGID_5_);" d="M95.8,282.4c0,0,23-7.2,49.1,0c7.8,2.2,0.7,20.9-24.6,20.9S95.8,282.4,95.8,282.4z"/>
		
			<linearGradient id="SVGID_6_" gradientUnits="userSpaceOnUse" x1="188.31" y1="-105.9717" x2="188.6613" y2="-77.3244" gradientTransform="matrix(1 0 0 -1 0 201.2561)">
			<stop  offset="0" style="stop-color:#EFA867"/>
			<stop  offset="0.42" style="stop-color:#FFC589"/>
		</linearGradient>
		<path style="fill:url(#SVGID_6_);" d="M165.5,282.4c23.3-9.1,49.1,0,49.1,0s0.7,20.9-24.6,20.9S158,285.3,165.5,282.4z"/>
		<linearGradient id="SVGID_7_" gradientUnits="userSpaceOnUse" x1="150.2005" y1="215.9501" x2="150.2005" y2="329.9755">
			<stop  offset="2.564103e-03" style="stop-color:#FFA963"/>
			<stop  offset="0.4176" style="stop-color:#FFC586"/>
		</linearGradient>
		<path style="fill:url(#SVGID_7_);" d="M218.4,292.6c-1.3-23.3-3.4-57.5-5.1-74.7c-2.7-27.7-26.3-22.4-26.3-22.4
			c-55.8-43-105-10.6-105-10.6c0.9,20.4,2.8,75.7,3.8,106.7c0.5,16.3,10.3,30.9,25.2,37.5c10.6,4.7,22.2,8.3,31.6,9.6l8.6,4.4
			c13.4-2.1,31.5-9.1,45.7-15.3C210.7,321.7,219.3,307.7,218.4,292.6z M131.3,274c-5.7,5-16.6,3.8-16.6,3.8
			c-4.5-0.1-8.5-2.4-11.4-5.8c-1.8-2.1-3.3-4.9-4-8.9c-0.3-1.4-0.4-2.8-0.3-4.1c0.1-11.5,10.7-20.2,22-18
			c11,2.2,14.3,13.2,14.6,20.2C135.8,267.6,133.8,271.7,131.3,274z M209.7,263.5c-0.7,3.9-2.3,6.8-4.1,8.8
			c-2.9,3.4-6.9,5.6-11.4,5.7c0,0-10.9,1.2-16.6-3.9c-2.6-2.3-4.5-6.4-4.1-12.9c0.4-7,3.7-18,14.8-20.1c11.3-2.1,21.8,6.6,21.8,18.1
			C210,260.7,209.9,262,209.7,263.5z"/>
		<path style="fill:#B66B56;" d="M152.7,308.2c-4.7,0-8.1-0.8-8.4-0.9c-1.2-0.3-2-1.5-1.7-2.7c0.3-1.2,1.5-2,2.7-1.7
			c0.2,0,17.5,4,27.3-7.3c0.8-0.9,2.2-1,3.2-0.2c0.9,0.8,1,2.2,0.2,3.2C169.2,306.6,159.6,308.2,152.7,308.2z"/>
		<g id="Layer_2_2_">
			
				<ellipse transform="matrix(3.565563e-03 -1 1 3.565563e-03 -177.8351 483.9714)" style="fill:#FFBB7A;" cx="153.9" cy="331.2" rx="6" ry="8.6"/>
		</g>
		<path style="fill:#38364B;" d="M123.1,220.7c0,0-15.3-2.1-19.6,9.9c0,0,14.8-5.5,21.8-1.2c0,0,1-6.8-5.6-5.8L123.1,220.7z"/>
		<path style="fill:#38364B;" d="M187.7,210.9c0,0,15.3-2,19.5,10c0,0-14.8-5.6-21.8-1.4c0,0-0.9-6.8,5.6-5.8L187.7,210.9z"/>
		<g style="opacity:0.4;">
			<defs>
				<path id="SVGID_9_" style="opacity:0.4;" d="M186.1,195.5c0,0,23.6-5.3,26.3,22.4s6.5,99.1,6.5,99.1s-42.8,22.2-68.6,26.2
					l-8.6-4.4c-18.4-2.7-45.1-13.7-56.1-25.1c0,0-3.2-99.6-4.5-128.7C81.1,184.9,130.3,152.5,186.1,195.5z"/>
			</defs>
			<clipPath id="SVGID_8_">
				<use xlink:href="#SVGID_9_"  style="overflow:visible;"/>
			</clipPath>
		</g>
		<g style="opacity:0.31;">
			
				<ellipse transform="matrix(3.565586e-03 -1 1 3.565586e-03 -173.8032 398.0248)" style="fill:#FF8D7E;" cx="112.8" cy="286.2" rx="8.5" ry="16.7"/>
		</g>
		<g style="opacity:0.31;">
			
				<ellipse transform="matrix(3.565586e-03 -1 1 3.565586e-03 -89.8803 482.8502)" style="fill:#FF8D7E;" cx="197.3" cy="286.5" rx="8.5" ry="16.7"/>
		</g>
		<g style="opacity:0.31;">
			
				<ellipse transform="matrix(3.565586e-03 -1 1 3.565586e-03 -111.5317 418.8866)" style="fill:#FF8D7E;" cx="154.4" cy="265.4" rx="6" ry="11.9"/>
		</g>
		<polygon style="fill:#CE7B49;" points="153.7,260.7 163.4,275.8 147,279.4 		"/>
		
			<ellipse transform="matrix(3.565586e-03 -1 1 3.565586e-03 -114.951 425.0551)" style="opacity:0.22;fill:#FFFFFF;" cx="155.8" cy="270.2" rx="2.3" ry="2.2"/>
		<g>
			<path style="fill:#FF8221;" d="M91.9,144.3c0.5,0.7-31.4-5-62.2,33.7c-38.5,48.3,56.2,119,56.2,119s24.7-107.7-6.8-125.6
				L91.9,144.3z"/>
			<path style="fill:#F97420;" d="M47.4,234.2l0.4,6.7c-13.5-8.6-22.8-32.8-26.7-44.9C12.4,242.1,85.9,297,85.9,297s2.1-9,4.2-22.3
				C67.8,260.4,47.4,234.2,47.4,234.2z"/>
		</g>
		<g>
			<path style="fill:#FF8221;" d="M60,121.5c0,0,30.2-4.9,38.1,12.7c0,0,1.1-22.9,24.5-35.2l8.8,35.3l-33.4,42.4l-26-25.5L60,121.5z
				"/>
			<path style="fill:#F97420;" d="M91.9,146.5c-8-19.8-23.2-24.2-31.9-25.1c0,0-0.1,0-0.1,0l12,29.6l13.2,13
				C92,161.8,96,156.8,91.9,146.5z"/>
			<path style="fill:#F97420;" d="M123.4,102.4c-5.3,7.1-9.9,19.4-8.3,40.7l11.7-3l4.6-5.8L123.4,102.4z"/>
		</g>
		<g>
			<path style="fill:#FF8221;" d="M121.6,138.1c0,0-1.5-21.5,33.5-22.4s55.1,6.4,72.4-12.4c0,0,31.5,35-0.9,65.5
				s-77.5,11.9-77.5,11.9S115.8,172.7,121.6,138.1z"/>
			<path style="fill:#F97420;" d="M237.8,153.6c-5,4.5-24.3,18.7-51.4-0.5c-26-18.4-55.6-12.8-65.4-10.2c-0.1,1.7-0.1,3.3-0.1,4.8
				c6.2,7.1,21,22.8,41.2,36.7c15.8,3.2,42.9,4.6,64.5-15.7C231.9,163.8,235.5,158.7,237.8,153.6z"/>
		</g>
		<g>
			<g>
				<path style="fill:#FF8221;" d="M111.7,134.2c0,0,28.7,16.1,48.6,16.1s66.8,22.5,6.9,80.9L63.6,166.6L111.7,134.2z"/>
			</g>
			<g>
				<path style="fill:#F97420;" d="M167.2,231.3c0.1-0.1,0.1-0.1,0.2-0.2c-3.4-12-14.1-40.5-41.3-49.2c-23.7-7.6-32.5-2.5-35.7,1.5
					L167.2,231.3z"/>
			</g>
		</g>
	</g>
</g>
<g id="Голова_x5F_1">
	<g>
		<g id="Layer_13_1_">
			<g>
				<path style="fill:#E6551E;" d="M25.7,75.7c0,0-7.6,5.1-25.7,1.6c0,0,13.6,46.8,42.1,25.9L25.7,75.7z"/>
				<g>
					<g>
						<defs>
							<path id="SVGID_11_" d="M25.7,75.7c0,0-7.6,5.1-25.7,1.6c0,0,13.6,46.8,42.1,25.9L25.7,75.7z"/>
						</defs>
						<clipPath id="SVGID_10_">
							<use xlink:href="#SVGID_11_"  style="overflow:visible;"/>
						</clipPath>
						<path style="clip-path:url(#SVGID_10_);fill:#D74A1B;" d="M38.6,97.3c-1.7-0.8-4.1-1.4-7.1-1.9c-17.9-2.8-26.8-12.1-30.8-18
							c-0.3-0.1-0.5-0.1-0.6-0.1c0,0,13.6,46.8,42.1,25.9L38.6,97.3z"/>
					</g>
				</g>
			</g>
			<g>
				<path style="fill:#FF8221;" d="M112.3,37.4l13.6-5.6c0,0,50.9,21.1,71.4,9c0,0,1.7,39-22.8,40.3l25.5,0.1
					c0,0-19.4,42.2-71.3,45.8l-27.5-18L112.3,37.4z"/>
				<path style="fill:#F97420;" d="M174.5,81.1c24.4-1.3,22.8-40.3,22.8-40.3c-0.1,0-0.1,0.1-0.1,0.1c-13.4,32.5-52,36.9-52,36.9
					s3.7,7.2,30.5,3.6c0.3-0.1,0.6-0.1,0.8-0.1L174.5,81.1z"/>
				<path style="fill:#F97420;" d="M110.6,47.8c35.1,3,63.2-2.2,68.7-3.3c-23.2-0.2-53.5-12.7-53.5-12.7l-13.6,5.6L110.6,47.8z"/>
				<path style="fill:#F97420;" d="M141.5,125.2c39.1-8.2,55.8-38.8,58.2-43.4c-10.8,7.4-40.1,25.6-73.9,29.7L141.5,125.2z"/>
			</g>
			<g>
				<path style="fill:#E6551E;" d="M139.2,119.4c0,0,2.9,20,30.7,20.2c0,0-30.9,32.2-52,4.2L139.2,119.4z"/>
				<path style="fill:#D74A1B;" d="M170,139.6c0,0-34.5,15.5-43.4-5.7l-8.6,9.9C118,143.8,134.6,172.8,170,139.6z"/>
			</g>
			<g>
				<path style="fill:#FFC589;" d="M51.2,99.9c0,0-29.7-11.5-27.6,12.1s35.1,2.8,35.1,2.8L51.2,99.9z"/>
			</g>
			<g>
				<path style="fill:#FFC589;" d="M148,107.6c0,0,31.1-6.7,25.3,16.2c-5.7,22.9-35.1-2.8-35.1-2.8L148,107.6z"/>
			</g>
			<path style="fill:#FFBB7A;" d="M149.4,113.9c0,0,18.9-4.1,15.8,6.6c-3.2,10.5-17.7-1.3-17.7-1.3"/>
			<path style="fill:#FFBB7A;" d="M48.8,105.9c0,0-18.1-6.9-16.6,3.9s17.7,1.3,17.7,1.3L48.8,105.9z"/>
			<g>
				<path style="fill:#E6551E;" d="M51.4,104.5c0,0-21.3,28.2-37.6,27.4c0,0,25.7,26,50.7,8.3L51.4,104.5z"/>
				<g>
					<g>
						<defs>
							<path id="SVGID_13_" d="M51.4,104.5c0,0-21.3,28.2-37.6,27.4c0,0,25.7,26,50.7,8.3L51.4,104.5z"/>
						</defs>
						<clipPath id="SVGID_12_">
							<use xlink:href="#SVGID_13_"  style="overflow:visible;"/>
						</clipPath>
						<path style="clip-path:url(#SVGID_12_);fill:#D74A1B;" d="M64.5,140.3l-5.1-14c-21,11.2-38.5,7.8-45.2,5.8c-0.1,0-0.2,0-0.3,0
							C13.9,132,39.6,158,64.5,140.3z"/>
					</g>
				</g>
			</g>
			<path style="fill:#E6551E;" d="M127.8,57.7c0,0,45.9-10,15.1,67.6l-5.4-0.4L127.8,57.7z"/>
		</g>
		<path style="fill:#FFFFFF;" d="M124.2,121.9l-42.6-2.3c-9.2-0.5-16.3-8.5-15.8-17.7v0c0.5-9.2,8.5-16.3,17.7-15.8l42.6,2.3
			c9.2,0.5,16.3,8.5,15.8,17.7v0C141.4,115.2,133.5,122.4,124.2,121.9z"/>
		<g id="Layer_11_1_">
			<g>
				
					<ellipse transform="matrix(6.940413e-02 -0.9976 0.9976 6.940413e-02 -30.9403 180.5652)" style="fill:#527088;" cx="81.3" cy="106.9" rx="11.5" ry="11.5"/>
				
					<ellipse transform="matrix(6.940413e-02 -0.9976 0.9976 6.940413e-02 -31.0851 181.9668)" style="fill:#38364B;" cx="82" cy="107.6" rx="7.8" ry="7.8"/>
				
					<ellipse transform="matrix(6.940413e-02 -0.9976 0.9976 6.940413e-02 -29.9642 172.9769)" style="opacity:0.42;fill:#FFFFFF;enable-background:new    ;" cx="77.7" cy="102.5" rx="4.8" ry="4.8"/>
			</g>
			<g>
				<g>
					
						<ellipse transform="matrix(7.903252e-02 -0.9969 0.9969 7.903252e-02 7.2497 228.5928)" style="fill:#527088;" cx="127.3" cy="110.4" rx="11.5" ry="11.5"/>
					
						<ellipse transform="matrix(7.903252e-02 -0.9969 0.9969 7.903252e-02 5.7916 228.1796)" style="fill:#38364B;" cx="126.4" cy="111" rx="7.8" ry="7.8"/>
					
						<ellipse transform="matrix(7.903252e-02 -0.9969 0.9969 7.903252e-02 13.6575 227.7394)" style="opacity:0.42;fill:#FFFFFF;enable-background:new    ;" cx="130.1" cy="106.5" rx="4.8" ry="4.8"/>
				</g>
			</g>
		</g>
		<g id="Layer_10_1_">
			<g>
				<path style="fill:#EFA867;" d="M85.2,145.1l2.1,15.6c0,0,8.5,8.5,20.6,0.1l1.5-16.3L85.2,145.1"/>
				
					<linearGradient id="SVGID_14_" gradientUnits="userSpaceOnUse" x1="83.9023" y1="420.0482" x2="105.9672" y2="420.0482" gradientTransform="matrix(1 3.565586e-03 3.565586e-03 -1 0.9758 579.3485)">
					<stop  offset="2.564103e-03" style="stop-color:#EFA867"/>
					<stop  offset="0.4176" style="stop-color:#FFC589"/>
				</linearGradient>
				<path style="fill:url(#SVGID_14_);" d="M86.4,154.4c0,0,11.4,6.6,22.1,0.1l-0.6,6.4c0,0-10.2,9.2-20.6-0.1L86.4,154.4z"/>
			</g>
			
				<linearGradient id="SVGID_15_" gradientUnits="userSpaceOnUse" x1="69.1664" y1="410.538" x2="69.4086" y2="392.7567" gradientTransform="matrix(0.9971 7.561494e-02 -7.561494e-02 0.9971 41.9869 -281.3206)">
				<stop  offset="0" style="stop-color:#EFA867"/>
				<stop  offset="0.42" style="stop-color:#FFC589"/>
			</linearGradient>
			<path style="fill:url(#SVGID_15_);" d="M64.6,116.2c0,0,15.1-3.5,31.5,2.4c4.9,1.7-0.6,13.4-16.8,12.2
				C63.1,129.5,64.6,116.2,64.6,116.2z"/>
			
				<linearGradient id="SVGID_16_" gradientUnits="userSpaceOnUse" x1="112.1322" y1="410.59" x2="112.3579" y2="392.1926" gradientTransform="matrix(0.9971 7.561494e-02 -7.561494e-02 0.9971 41.9869 -281.3206)">
				<stop  offset="0" style="stop-color:#EFA867"/>
				<stop  offset="0.42" style="stop-color:#FFC589"/>
			</linearGradient>
			<path style="fill:url(#SVGID_16_);" d="M109.3,119.5c15.4-4.7,31.5,2.4,31.5,2.4s-0.6,13.4-16.8,12.2
				C107.8,132.9,104.3,121.1,109.3,119.5z"/>
			
				<linearGradient id="SVGID_17_" gradientUnits="userSpaceOnUse" x1="87.6161" y1="467.2705" x2="87.6161" y2="394.0446" gradientTransform="matrix(0.9971 7.561494e-02 7.561494e-02 -0.9971 -19.9611 535.5312)">
				<stop  offset="2.564103e-03" style="stop-color:#FFA963"/>
				<stop  offset="0.4176" style="stop-color:#FFC586"/>
			</linearGradient>
			<path style="fill:url(#SVGID_17_);" d="M142.7,128.6c0.3-15,0.6-37,0.3-48.1c-0.4-17.9-15.8-15.6-15.8-15.6
				C93.6,34.7,60.5,53,60.5,53c-0.4,13.1-1.9,48.6-2.8,68.5c-0.5,10.5,5.1,20.3,14.3,25.2c6.6,3.5,13.8,6.4,19.8,7.7l5.3,3.3
				c8.7-0.7,20.6-4.3,30-7.6C136.4,146.9,142.6,138.3,142.7,128.6z M87.7,112.5c-3.9,3-10.8,1.6-10.8,1.6c-2.9-0.3-5.3-1.9-7-4.2
				c-1-1.4-1.9-3.3-2.1-5.8c-0.1-0.9-0.1-1.8,0-2.6c0.6-7.4,7.8-12.4,15-10.5c6.9,1.9,8.5,9.1,8.4,13.6
				C91,108.7,89.5,111.2,87.7,112.5z M138.6,109.6c-0.6,2.5-1.8,4.2-3,5.5c-2.1,2-4.8,3.3-7.6,3.1c0,0-7.1,0.3-10.4-3.3
				c-1.5-1.6-2.6-4.3-2-8.4c0.6-4.4,3.3-11.3,10.4-12.1c7.4-0.8,13.7,5.3,13.1,12.7C139,107.8,138.8,108.7,138.6,109.6z"/>
			<path style="fill:#B66B56;" d="M99.8,135.5c-3-0.3-5.1-0.9-5.3-1c-0.8-0.3-1.2-1.1-1-1.8c0.3-0.8,1.1-1.2,1.8-1
				c0.1,0.1,11,3.4,17.8-3.3c0.6-0.6,1.5-0.6,2.1,0c0.6,0.6,0.6,1.5,0,2.1C110.5,135.2,104.2,135.8,99.8,135.5z"/>
			<g id="Layer_2_1_">
				
					<ellipse transform="matrix(7.903250e-02 -0.9969 0.9969 7.903250e-02 -58.0615 237.5812)" style="fill:#FFBB7A;" cx="99.6" cy="150.2" rx="3.9" ry="5.5"/>
			</g>
			<path style="fill:#38364B;" d="M85.1,77.3c0,0-9.7-2.1-13.1,5.4c0,0,9.8-2.8,14,0.3c0,0,1-4.3-3.3-4L85.1,77.3z"/>
			<path style="fill:#38364B;" d="M127,74.2c0,0,9.9-0.5,12,7.4c0,0-9.2-4.3-13.9-1.9c0,0-0.3-4.4,3.9-3.5L127,74.2z"/>
			<g style="opacity:0.4;enable-background:new    ;">
				<g>
					<defs>
						<path id="SVGID_19_" d="M126.7,64.9c0,0,15.4-2.2,15.8,15.6s-0.6,63.8-0.6,63.8s-28.6,12.1-45.3,13.4l-5.3-3.3
							c-11.6-2.6-28.2-10.9-34.7-18.8c0,0,2.8-64,3.3-82.7C59.9,53,93,34.7,126.7,64.9z"/>
					</defs>
					<clipPath id="SVGID_18_">
						<use xlink:href="#SVGID_19_"  style="overflow:visible;"/>
					</clipPath>
				</g>
				<g>
					<defs>
						<path id="SVGID_21_" d="M126.7,64.9c0,0,15.4-2.2,15.8,15.6s-0.6,63.8-0.6,63.8s-28.6,12.1-45.3,13.4l-5.3-3.3
							c-11.6-2.6-28.2-10.9-34.7-18.8c0,0,2.8-64,3.3-82.7C59.9,53,93,34.7,126.7,64.9z"/>
					</defs>
					<clipPath id="SVGID_20_">
						<use xlink:href="#SVGID_21_"  style="overflow:visible;"/>
					</clipPath>
				</g>
			</g>
			<g style="opacity:0.31;">
				
					<ellipse transform="matrix(7.903252e-02 -0.9969 0.9969 7.903252e-02 -49.6397 185.088)" style="fill:#FF8D7E;" cx="75.4" cy="119.4" rx="5.5" ry="10.7"/>
			</g>
			<g style="opacity:0.31;">
				
					<ellipse transform="matrix(7.903252e-02 -0.9969 0.9969 7.903252e-02 -4.0383 243.1174)" style="fill:#FF8D7E;" cx="129.6" cy="123.7" rx="5.5" ry="10.7"/>
			</g>
			<g style="opacity:0.31;">
				
					<ellipse transform="matrix(7.903252e-02 -0.9969 0.9969 7.903252e-02 -12.8893 202.3228)" style="fill:#FF8D7E;" cx="103.1" cy="108.1" rx="3.9" ry="7.7"/>
			</g>
			<polygon style="fill:#CE7B49;" points="102.8,105.1 108.3,115.2 97.6,116.8 			"/>
			
				<ellipse transform="matrix(7.903252e-02 -0.9969 0.9969 7.903252e-02 -15.3562 205.8312)" style="opacity:0.22;fill:#FFFFFF;enable-background:new    ;" cx="103.7" cy="111.2" rx="1.5" ry="1.4"/>
			<g>
				<path style="fill:#FF8221;" d="M68.8,27.6C69,28,48.9,22.9,27.2,46.1C0.1,75.1,57.5,125,57.5,125s21-67.8,1.7-80.7L68.8,27.6z"
					/>
				<path style="fill:#F97420;" d="M35.9,83l-0.1,4.3c-8.2-6.2-13-22.1-14.9-30C13.1,86.4,57.5,125,57.5,125s1.7-5.7,3.8-14.1
					C47.7,100.7,35.9,83,35.9,83z"/>
			</g>
			<g>
				<path style="fill:#FF8221;" d="M49.4,11.4c0,0,19.6-1.7,23.9,10c0,0,1.8-14.6,17.4-21.3l3.9,23.1L71.1,48.6L55.7,31L49.4,11.4z"
					/>
				<path style="fill:#F97420;" d="M68.7,29c-4.1-13-13.7-16.6-19.2-17.6h-0.1l6.2,19.5l7.8,9C68,38.8,70.8,35.7,68.7,29z"/>
				<path style="fill:#F97420;" d="M91.1,2.2c-3.7,4.3-7.3,11.9-7.3,25.6l7.7-1.3l3.2-3.5L91.1,2.2z"/>
			</g>
			<g>
				<path style="fill:#FF8221;" d="M88.2,25c0,0,0.1-13.9,22.6-12.8c22.5,1.1,35.1,6.8,47.1-4.4c0,0,18.5,24-3.8,41.9
					c-22.3,18-50.3,3.9-50.3,3.9S82.7,46.9,88.2,25z"/>
				<path style="fill:#F97420;" d="M161.9,40.6c-3.4,2.6-16.5,10.8-32.9-2.8c-15.8-13-35.1-10.9-41.4-9.7c-0.1,1-0.3,2.1-0.3,3.1
					c3.6,4.8,12.4,15.6,24.6,25.5c10,2.8,27.3,5,42.1-6.9C157.7,46.8,160.2,43.7,161.9,40.6z"/>
			</g>
			<g>
				<g>
					<path style="fill:#FF8221;" d="M82,22c0,0,17.6,11.7,30.4,12.7c12.8,1,41.7,17.7,0.5,52.1L49.5,40.4L82,22z"/>
				</g>
				<g>
					<path style="fill:#F97420;" d="M112.9,86.9c0.1-0.1,0.1-0.1,0.1-0.1c-1.6-7.8-7.1-26.6-24.1-33.5c-14.8-6-20.7-3.2-23-0.8
						L112.9,86.9z"/>
				</g>
			</g>
		</g>
	</g>
</g>
<g id="Тело_с_планшетом">
	<g>
		<polygon style="fill:#FF9C33;" points="121,307.9 124,327.4 106.9,328.6 114,304.2 		"/>
		<path style="fill:#36334A;" d="M127.5,327.5c0,0-6.7-7.1-12.4-5.7c-5.7,1.4-7,3.2-7,3.2l0-0.2l-3.8,11.7l4.3,3.4L127.5,327.5z"/>
		<path style="fill:#3E3D54;" d="M138.4,332c0,0-5.2-8.6-20.4-6.1s-13.2,8.9-13.2,8.9L138.4,332z"/>
		<path style="fill:#C9C7CC;" d="M138.4,332.1c0,0,3.2,4.7-1.8,7.9l-30.2,0c0,0-3.4-0.3-1.8-5.2L138.4,332.1z"/>
		<polygon style="fill:#3B6E8C;" points="127.1,224.6 125.1,315.5 108.6,315.5 107.1,227.7 		"/>
		<path style="fill:#3B6E8C;" d="M70.4,219.7l0,23.1l17.4-1.3c7.6,1.4,15.4,1.3,22.9-0.2l16.1-1.8l0.1-14.6
			C126.8,224.9,90.6,199.6,70.4,219.7z"/>
		<path style="fill:#FF9C33;" d="M86.5,310.3c0,1.2,6.4,19.8,6.4,19.8l-17.1,0l2.8-21L86.5,310.3z"/>
		<polygon style="fill:#3B6E8C;" points="71,229.9 66.1,275.4 75.2,313.3 92,314.6 85.6,272.7 90.7,239.5 		"/>
		<path style="fill:#3E3D54;" d="M76.4,324.3l6.1,5.8c0,0,5.5-3,9.5-2.1l3.3,8.8l-43.7-0.1c0,0,0-5.5,4.3-6.4
			C63.2,328.8,76.4,324.3,76.4,324.3z"/>
		<path style="fill:#C9C7CC;" d="M94.3,333.8l1,3l0,3l-45.2-0.1c0,0-1.2-1.5,1.2-5.8L94.3,333.8z"/>
	</g>
	<path style="fill:#9DA94D;" d="M83.1,151.4c-3.1,1.5-31.7-0.2-44.8,29.8s17.6,33.4,29.8,25.4S83.1,151.4,83.1,151.4z"/>
	<path style="fill:#868E3C;" d="M60.4,176.3c0,0-13.4,4-13.1,15.5c0,0,0.5-6,7.8-9c0,0-7.1,8.5-4.4,14.9c0,0,5.1-14.6,12.4-16.8
		L60.4,176.3z"/>
	<path style="fill:#444442;" d="M70.6,238.2l71.2,0.6l49.1-1c2.8,0,5.4-2.6,5.4-5.4l-0.6-80c0-2.8-2.3-5.3-5.1-5.3l-21.2,0.1
		l-98.3-0.4c-2.8,0-5.3,2.3-5.3,5.1L65,220.5l0,12.9C65,236.2,67.8,238.2,70.6,238.2z"/>
	
		<ellipse transform="matrix(1 -2.813449e-03 2.813449e-03 1 -0.54 0.5326)" style="fill:#1C1C1B;" cx="189" cy="192.2" rx="3.9" ry="3.9"/>
	<polygon style="fill:#FFFFFF;" points="75.8,233.8 182.6,232.1 182.4,152.6 75.8,152.6 	"/>
	<g>
		
			<linearGradient id="SVGID_22_" gradientUnits="userSpaceOnUse" x1="237.7616" y1="222.4875" x2="239.8896" y2="230.2901" gradientTransform="matrix(-0.9833 0.182 0.182 0.9833 346.7139 -28.2776)">
			<stop  offset="0" style="stop-color:#FF9E89"/>
			<stop  offset="1" style="stop-color:#FFC586"/>
		</linearGradient>
		<path style="fill:url(#SVGID_22_);" d="M153.5,236.7c-0.8,0-1.8,0.4-2.8,1.9c0,0-0.4,4.5,3.7,1.6
			C155.9,239.2,155.3,236.8,153.5,236.7z"/>
		
			<linearGradient id="SVGID_23_" gradientUnits="userSpaceOnUse" x1="242.579" y1="221.1741" x2="244.7071" y2="228.977" gradientTransform="matrix(-0.9833 0.182 0.182 0.9833 346.7139 -28.2776)">
			<stop  offset="0" style="stop-color:#FF9E89"/>
			<stop  offset="1" style="stop-color:#FFC586"/>
		</linearGradient>
		<path style="fill:url(#SVGID_23_);" d="M150.9,237.6l-0.2,0.9c0,0-1.3,1.9-3.7,1.6c-2.4-0.3-2-1.4-2-1.4l1.1-2.6
			c0.4-1,1.4-1.6,2.4-1.6c0,0,0,0,0.1,0C150.2,234.7,151.2,236.2,150.9,237.6z"/>
		
			<linearGradient id="SVGID_24_" gradientUnits="userSpaceOnUse" x1="247.5706" y1="219.8136" x2="249.6986" y2="227.6164" gradientTransform="matrix(-0.9833 0.182 0.182 0.9833 346.7139 -28.2776)">
			<stop  offset="0" style="stop-color:#FF9E89"/>
			<stop  offset="1" style="stop-color:#FFC586"/>
		</linearGradient>
		<path style="fill:url(#SVGID_24_);" d="M145.7,237.6l-0.2,0.9c0,0-1.3,1.9-3.7,1.6c-2.4-0.3-2-1.4-2-1.4l1.1-2.6
			c0.4-1,1.4-1.6,2.4-1.6c0,0,0,0,0.1,0C145,234.7,146,236.2,145.7,237.6z"/>
		
			<linearGradient id="SVGID_25_" gradientUnits="userSpaceOnUse" x1="252.5903" y1="218.4453" x2="254.7184" y2="226.2481" gradientTransform="matrix(-0.9833 0.182 0.182 0.9833 346.7139 -28.2776)">
			<stop  offset="0" style="stop-color:#FF9E89"/>
			<stop  offset="1" style="stop-color:#FFC586"/>
		</linearGradient>
		<path style="fill:url(#SVGID_25_);" d="M140.4,238.6l-0.2,0.9c0,0-1.3,1.9-3.7,1.6c-2.4-0.3-2-1.4-2-1.4l1.1-2.6
			c0.4-1,1.4-1.6,2.4-1.6c0,0,0,0,0.1,0C139.7,235.7,140.7,237.1,140.4,238.6z"/>
	</g>
	
		<linearGradient id="SVGID_26_" gradientUnits="userSpaceOnUse" x1="-25.8138" y1="219.6006" x2="-1.3198" y2="219.6006" gradientTransform="matrix(0.9262 0.3771 -0.3771 0.9262 161.8734 -19.2538)">
		<stop  offset="0" style="stop-color:#FF9E89"/>
		<stop  offset="1" style="stop-color:#FFC586"/>
	</linearGradient>
	<path style="fill:url(#SVGID_26_);" d="M65.2,195c2.1-0.9,3.4-3.3,3.7-5.5c0.1-0.9-0.5-3.6,0.3-4.2c0.4-0.4,1-0.5,1.6-0.5
		c2.1-0.2,4.2,0.2,6,1.2c0.7-2,2-2.8,0.6-4.4c-0.6-0.7-1.6-1.1-2.5-1.2c-2.2-0.4-4.6,0.1-6.4,1.5c1.7-3.8,6-7.7,9.7-5.7
		c1.3-2.1,2.6-2.8-0.7-4.8c-4-0.3-8.1,1.9-10.1,5.4c0.8-4.2,4.5-7.6,8.7-8.2c-0.7-1.7-1.7-3.6-3.5-3.8c-1-0.1-2,0.4-2.8,1
		c-3.5,2.3-5.9,6.1-6.7,10.2c-1.5-4-1.3-7.7,1.9-10.5c-0.5-2.4-3.2-2.1-4.9-0.8c-1.7,1.4-2.6,3.5-3.1,5.6c-0.6,2.7,1.3,6.1,1.9,8.8
		c0.6,2.7,0,4.7,0.2,7.5C59.4,190,62.4,196.2,65.2,195z"/>
	<g>
		<g>
			<path style="fill:#F97420;" d="M147,174.2c-4.5-3.7-10.3-6.3-16.2-6c-3.3,0.1-6.2,0.5-9.2,1.9c-2.4,1.1-5.6,2.4-7.4,4.2
				c-2.2,2.1-4.3,4.7-5.9,7.3c-0.4,0.7-0.7,1.4-1,2.2c-3.7-0.9-6.9-1.7-8.1-2c1.8,4.7,6.9,19.5,9,25c3.2-3,6.1-6.1,9.3-9.1
				c1.5-1.4,8.9-9.1,8.9-9.1c-0.8-0.3-4.2-1.1-8.3-2.1c0.1-0.1,0.1-0.2,0.2-0.3c0.9-1.3,1.8-2.9,3-3.9c5.1-4,12.9-4.7,18.2-0.9
				c5.4,4,7.8,10,5.5,16.4c-1,2.8-3.2,5.2-5.4,7.1c-2,1.8-5.9,2.8-8.6,2.6c-1.7-0.1-3.7-0.3-5.3-0.8c-0.8-0.2-2.1-1-2.1-1l-1-0.7
				c0,0-5.5,7.4-6.5,8.5c5.3,3.4,12.8,5.8,19.2,4.1c3.2-0.9,6.4-1.3,9.2-3.2c2.8-1.9,5.3-4.3,7.7-6.7c3.6-6,5.7-12.1,4-19
				c-0.7-2.8-0.9-4.9-3-8.2C151,177.4,149.1,176,147,174.2z"/>
		</g>
	</g>
</g>
<g id="Кнопка">
</g>
</svg>
