<?xml version="1.0" encoding="utf-8"?>
<!-- Generator: Adobe Illustrator 21.0.0, SVG Export Plug-In . SVG Version: 6.00 Build 0)  -->
<svg version="1.1" id="Layer_9" xmlns="http://www.w3.org/2000/svg" xmlns:xlink="http://www.w3.org/1999/xlink" x="0px" y="0px"
	 width="534.2px" height="530.7px" viewBox="0 0 534.2 530.7" style="enable-background:new 0 0 534.2 530.7;" xml:space="preserve"
	>
<style type="text/css">
	.st0{fill:#85B284;}
	.st1{fill:#ADD1AC;}
	.st2{fill:#9AC146;}
	.st3{fill:#7FA331;}
	.st4{fill:#876D4E;}
	.st5{fill:#725D41;}
	.st6{fill:none;}
	.st7{fill:#5E472B;}
	.st8{fill:#8BB73D;}
</style>
<title>error_animation-01</title>
<g>
	<path class="st0" d="M232.6,526.2c-12.1,0.7-24.3-1.2-36.4-1.8c-3.1-0.2-6.4-0.4-8.9-2.3c-2-1.5-3.1-3.9-4-6.2
		c-2.3-5.5-4-11.3-5.2-17.1c-0.7-3.4-1-7.3,1.3-9.8c4.4-5,12.4,0.1,16.8,5c-1.6-4.8,4-9.4,9-8.9s9,4.2,12.6,7.7
		c-1.6-4.2-3.2-8.7-2.7-13.2s3.5-9.1,8-9.7c5.8-0.8,10.2,4.8,13.3,9.8c0.8-4.1-0.7-8.4-0.9-12.6s2.3-9.3,6.5-9.3
		c1.8,0.1,3.6,0.8,5,1.9c7.5,4.9,13.5,11.9,17.2,20.1c-0.7-4,2-7.7,6-8.4c4-0.7,7.7,2,8.4,6c-2.9-5.8,3.5-12.8,10-12.5
		s11.6,5.5,14.9,11c-2.2-7.5-2.6-15.3-1.3-23c0.3-1.7,0.8-3.5,2-4.6c2.3-2,5.9-0.7,8.6,0.8c12,7,21.5,17.7,27.1,30.5
		c-1.5-4.8,4.2-9.4,9.2-8.7s8.8,4.8,11.7,8.9s5.5,8.7,9.8,11.4c-4.6-3.1-0.2-11.3,5.3-11.4s10,4.3,13.5,8.7
		c6.3,7.9,11.7,16.5,16.1,25.6C405.8,513.9,317.5,521.6,232.6,526.2z"/>
	<path class="st1" d="M534.2,530.7c0-8.8-3.2-18-9.5-24.2c-2.3-2.2-6.7-3.8-8.1-0.9c-0.3,0.9-0.4,1.8-0.2,2.7c0.3,2.9,1,5.7,2,8.4
		c-1.3-5.3-4-10.1-7.9-13.9c-1.5-1.4-3.3-2.8-5.4-2.8s-4.2,1.9-3.8,3.9c-1.6-10.4-8.6-19.3-18.3-23.2c-0.7-0.4-1.5-0.4-2.2-0.2
		c-0.7,0.5-1.1,1.4-1,2.3c-0.3,3.8,0.4,7.6,2,11c-3.5-7.6-9.5-13.6-17.1-17.1c-1.1-0.6-2.4-0.9-3.7-0.9c-2.8,0.2-4.6,3-5.5,5.7
		c-1.7,5.6-0.8,11.7,2.4,16.6c-1.2-5-3.8-9.5-7.6-13c-0.8-0.7-1.9-1.5-2.9-1.1c-0.8,0.4-1.4,1.1-1.6,2c-4,10.9-1.5,23.2,6.6,31.6"/>
	<path class="st2" d="M534.2,530.7l-386.5,0.1c3.2-16.5,20-26.9,36.8-27.2s32.6,7,47.8,14.1c-3.4-6.4-0.2-14.7,5.5-19.2
		s13.1-5.9,20.3-6.8c42.8-5.3,86.1,3.5,123.5,24.9c-3-4.2-1.3-10.4,2.4-14s9-5,14-5.9C440.1,488.9,495,513.2,534.2,530.7z"/>
	<path class="st3" d="M208,507.6c8.3,2.9,16.4,6.3,24.4,10.1c-3.1-5.7-0.8-13.1,3.9-17.8c19.8-2.8,39.8-3.6,59.8-2.4
		c5.3,0.3,10.8,0.8,15.2,3.9s6.8,9.4,3.8,13.8c16.1-1.9,32.2,4,43.3,15.8c-64.7,0-132-0.1-172.6-0.2
		C186.4,521.2,196.4,513,208,507.6z"/>
	<path class="st3" d="M460,531c0,0-27.2-26.9-63.2-23.5S340.7,531,340.7,531H460z"/>
	<g>
		<path class="st4" d="M309.2,330.2c0.9,0.9-59.7,60-69.5,69.5c-1.3,1.3-3.2,1.9-5.1,1.4c-1.6-0.5-2.8-1.7-3.3-3.3
			c-0.7-2.1-0.1-4.3,1.5-5.8l71.8-64.9L309.2,330.2z"/>
		<polygon class="st4" points="288.5,312.8 279.6,351.1 274.2,354.6 284.7,312.8 		"/>
		<polygon class="st5" points="186.1,401.2 137,337.1 143.4,333.7 183.7,383.5 		"/>
		<path class="st6" d="M54.2,289.8l-0.5-96.5"/>
		<path class="st5" d="M303.5,503.1c0,0-11.9,12.3-23.6,0s-54.4-193.3-54.4-193.3h-58.8L202.4,506c0,0-12.2,8.2-20.2-2.9l-4.6,1.2
			c0,0,3.2,16.7,31.9,6.6c0,0,9.4,0.9,3.7,8.9h9.5c0,0-4.4-9.5,2.8-8.9s9.3,8.9,9.3,8.9h8.8c0,0-7.2-10.9,1.9-11.5
			s9.1,11.5,9.1,11.5h9c0,0-6.5-10.1-0.5-11.5s11.8,9,26,8.5s20-10.9,20-10.9L303.5,503.1z"/>
		<path class="st7" d="M240.2,369.9c0,0-38,18.3-56-11.4c0,0-0.9,4.2-7.9,4.2l-5.3-21.2l63.8-1.4L240.2,369.9z"/>
		<path class="st4" d="M252.2,492.8c0,0-3.5-57.4-14.2-74.1S252.2,492.8,252.2,492.8z"/>
		<path class="st4" d="M232.6,477c0,0-10.1-86.9-22.8-111.4S232.6,477,232.6,477z"/>
		<path class="st4" d="M215.6,494c0,0-10.1-86.9-22.8-111.4S215.6,494,215.6,494z"/>
		<path class="st8" d="M184.7,33.8c15.6-20.5,46.1-26.8,69.8-16.6s39.6,34.8,42.2,60.4c16.2-12.8,41.1-9.8,57.1,3.2
			s24,33.7,26.2,54.2c16.2,1.2,28.3,15.9,34,31.1c14.7,39.1-3.3,87.7-39.9,107.9c5.6,10.9,4,24.6-2,35.3s-16,18.7-26.9,24.4
			c-25.8,13.4-56,15.1-83.1,4.8c-6.4,14.5-17.9,25-33.5,27.7c-15.9,2.6-32.1-2.8-43.3-14.4c-29.5,11.6-67-8.4-73.7-39.4
			c-20.6,3.9-40.9-7.8-56.6-21.7c-17.9-15.8-32.6-34.8-43.4-56.1c-8.1-16-14-34.1-10.5-51.7s18.7-33.7,36.6-33
			c-6.8-16-10.4-33.2-10.7-50.6c-0.3-16.7,3.2-34.8,15.6-45.9s35.5-10.8,43.2,4c-9.1-20.3,2.1-47.1,22.9-54.9
			C134.3-7.2,167.1,12.6,184.7,33.8z"/>
		<path class="st3" d="M27.4,211.2c11.9,10.9,20.4,25,24.7,40.6c-1.1-4.7-1.8-9.6-0.2-14.2c0.9-2.8,2.8-5.2,5.4-6.7
			c4.9-2.9,9.1-0.5,12.6,2c13.1,9.4,22.5,23.1,26.5,38.7c-1.9-10.1-2.8-20.3-2.7-30.6c0-1.8,0.6-3.5,1.6-4.9
			c3.3-4.2,8.9-1.6,12.7,1.2c14.8,10.9,26.7,25.2,34.7,41.8c-5.4-17.1-7.9-35-7.4-52.9c0-1.5,0.5-3.1,1.4-4.3
			c3.6-4.9,10.2-1.2,14.2,2.6c19.7,18.6,35.6,40.8,46.8,65.4l-13-41.9c-0.8-2.5-0.4-5.2,1.2-7.3c4-5.1,11.4-0.8,15.5,3.8
			c12.4,14,21.3,30.7,26.1,48.8c-1.3-8.8-4.9-23.9,2.9-26.3c17.3-8,24.8,13.5,33.7,24.4c-2.1-9.2-8.4-25.8,0.7-27.9
			c20.5-4.7,33.8,13.9,44.4,24L289.6,214c-1.7-6.2-3.3-12.8-0.5-18.9c1.4-3.1,4.2-5.3,7.5-6c5.3-0.9,9,3.1,11.9,6.9
			c11.8,15.4,20.1,33.1,24.4,51.9c-1.4-8.8,0.6-18.4,7.8-23.5c7.6-5.4,20.8-0.2,21.3,8.4l0.5-7.8c0.3-5.7,5.2-10.1,10.9-9.8
			c0.7,0,1.4,0.1,2.1,0.3c5.3,1.4,10.2,4,14.5,7.5c-1-8.7-2.1-17.7,0.6-26s10-15.9,18.8-15.7c3.2,0.1,6.3,1.1,9,2.9
			c4.4,34.9-13.2,72.6-44.3,89.8c5.6,10.9,4,24.6-2,35.3s-16,18.7-26.9,24.4c-25.8,13.4-56,15.1-83.1,4.8
			c-6.4,14.5-17.9,25-33.5,27.7c-15.9,2.6-32.1-2.8-43.3-14.4c-29.5,11.6-67-8.4-73.7-39.4c-20.6,3.9-40.9-7.8-56.6-21.7
			C37,275,22.3,256,11.5,234.7C6.1,224,1.7,212.3,0.4,200.5C9.5,199.6,20.2,204.6,27.4,211.2z"/>
		<path class="st3" d="M271.7,114.6c1.9-0.1,3.6,1,5.2,2.1l23.7,16.4c-6.7-8.7-11.7-18.5-14.9-29c-0.7-2.3-1.3-4.9-0.6-7.2
			c1.2-3.7,5.6-5.6,9.5-5.2s7.3,2.7,10.4,5.1c9.3,7.2,17.1,16.1,23.1,26.2c-3.2-5.8-4.6-12.4-4.3-19c0.2-2.9,1.2-6.4,4-7.1
			c2.1-0.6,4.3,0.8,6.1,2.1c6.6,5.2,11.9,11.8,15.4,19.4c-2.5-5.3-5-10.8-5.2-16.7s2.4-12.3,7.7-14.7c2.5-1.1,5.3-1.3,7.9-0.6
			c12,12.9,18.3,30.8,20.3,48.5c-26.9,4.9-50.8,23.9-61.6,49c-21.7-15-45.1-32.4-51.1-58.1C266.2,121.2,267.1,114.8,271.7,114.6z"/>
		<path class="st3" d="M236,200.7c-10.2-25.4-40.2-36.5-67.4-39.1c-10.6-1-21.7-1.1-31.6,2.8s-18.6,12.5-19.9,23.1
			c-9.4-15.2-16.9-31.4-22.3-48.4c-3-9.3-3.9-22.1,4.9-26.3c6.1-2.9,13.6,0.6,18.1,5.7s7,11.6,10.9,17.2
			c-5.6-18.8-7.2-38.6-4.9-58.1c0.6-4.5,1.9-9.8,6.2-11.5c2.1-0.7,4.4-0.7,6.6,0.1c11.5,3.4,17.9,15.6,20.9,27.2s4,24,10.4,34.2
			c-0.1-16.7,2.4-33.4,7.3-49.4c1.4-4.6,3.9-9.8,8.6-10.3c3.4-0.3,6.4,2.1,8.8,4.5c15.5,16,22.5,38.3,19,60.3
			c1.3-9.1,3.8-18,7.3-26.4c1-2.4,2.2-4.9,4.3-6.2c5.5-3.4,12.2,2.5,15.3,8.2C251.1,131.5,251.1,179,236,200.7"/>
		<path class="st3" d="M37.6,150c-6.8-16-10.4-33.2-10.7-50.6c0-1.5,0-3,0-4.4c4.5,2.6,8.1,6.6,10.1,11.4c2.8,6.2,3.3,13.2,3.4,20
			l2-15.9c0.3-2.6,0.9-5.6,3.3-6.8c2.5-1.3,5.5,0.3,7.7,2.2c11,9.6,15.3,24.9,10.8,38.8c1.4-4.6,4.4-10.1,9.1-9.4
			c3.5,0.5,5.4,4.3,6.5,7.6c4.9,15.4,4.6,31.9-1,47.1C72.4,170,56.1,155,35.8,150C36.4,150,37,150,37.6,150z"/>
		<path class="st4" d="M223.7,245.8c0.3,1,0,172,0,172l-8.7-12.1l3-159.8L223.7,245.8L223.7,245.8z"/>
		<polygon class="st4" points="218,331.8 180.8,283.1 172.9,284.4 218,345.5 		"/>
		<path class="st4" d="M257.7,502.9c-1.1-0.9-2.6-1.3-4-0.9c-1.3,0.4-2.3,1.5-2.7,2.9c-0.3,1.3-0.1,2.8,0.7,3.9
			c0.7-2.1,2.5-3.5,4.6-3.7c1.1-0.2,2.2,0.1,3.1,0.7C259.2,504.6,258.6,503.6,257.7,502.9z"/>
		<path class="st4" d="M233.2,506.6c-1.2,0.7-2.2,1.6-2.9,2.8c-1-1.6-1.9-3.5-1.5-5.4c0.4-2.4,2.7-4,5.1-3.6
			c0.9,0.2,1.7,0.6,2.4,1.2c0.6,0.7,1.2,1.6,1.5,2.5c0.4,0.8,0.7,1.6,1,2.5c0.2,0.4,0.3,0.9,0.1,1.4
			C237,507,235.5,505.5,233.2,506.6z"/>
		<path class="st4" d="M215.7,510.8c-0.4-0.7-0.7-1.5-1-2.3c-0.2-1.3,0.5-2.5,1.7-3c1.4-0.6,5.3,0.6,4.4,2.8
			C219.9,510,216.5,507.8,215.7,510.8z"/>
		<path class="st4" d="M210.7,509.5c1.4-2.3,0.7-5.3-1.6-6.7c-0.7-0.4-1.5-0.7-2.3-0.7c-1.2-0.1-3.6,0.4-2.9,1.9
			c0.6,1.4,3.2,1,4.3,1.5C209.6,506.3,210.6,507.8,210.7,509.5z"/>
	</g>
	<path class="st4" d="M239,391.7c-1.1-2.8-1.4-6-0.6-8.9c0.1-0.1,0.1-0.3,0-0.4c-0.1-0.1-0.2-0.1-0.3-0.1c-1.4-0.2-2.8,0.3-3.7,1.4
		c-0.9,1.1-1.5,2.4-1.5,3.8c-0.2,2.3,0.6,4.5,2.2,6.1c1.4,1.3,5.9,3.8,7.6,2.6c-0.4-0.7-1.5-0.9-2.1-1.6
		C239.9,393.8,239.4,392.8,239,391.7z"/>
	<path class="st4" d="M265.6,499.8c1.7-2.6,4.1-4.5,7-5.6c0.1,0,0.2-0.1,0.3-0.2c0-0.1,0-0.2,0-0.3c-0.6-1.3-1.9-2.1-3.3-2.3
		c-1.4-0.2-2.8,0.2-4,0.9c-2,1.1-3.3,3.1-3.8,5.3c-0.3,1.9,0.2,7,2.2,7.8c0.3-0.8-0.1-1.8,0.1-2.7
		C264.4,501.6,264.9,500.6,265.6,499.8z"/>
	<path class="st4" d="M236,398.4c-2-0.8-3.7-2.3-4.9-4.1c0-0.1-0.1-0.2-0.2-0.2c-0.1,0-0.1,0-0.2,0.1c-0.8,0.6-1.2,1.6-1.2,2.6
		c0.1,1,0.5,1.9,1.2,2.7c1.1,1.2,2.6,1.9,4.2,1.9c1.4,0,4.9-1.1,5.2-2.6c-0.6,0.1-1.3,0.1-1.9,0.3
		C237.5,398.9,236.7,398.7,236,398.4z"/>
	<path class="st4" d="M185.4,385.2c0.2,2.6-0.3,5.3-1.3,7.7c3.2-2.8,4.4-7.2,3-11.1c-0.2-0.6-0.5-1.1-0.9-1.6
		c-1-1.1-2.3-1.7-3.7-1.7c-0.5-0.1-1,0.1-1.5,0.4c0.3,1,2.2,1.7,2.9,2.6C184.7,382.5,185.2,383.8,185.4,385.2z"/>
	<path class="st4" d="M188,393.7c0.2-0.9,0.6-1.7,1.1-2.4c0.9,1.4,1.1,3.1,0.7,4.6c-0.4,1.4-3.9,5.5-5.5,3.1
		C183.3,397.4,187.4,395.1,188,393.7z"/>
	<path class="st3" d="M295.2,275.7c3.4,2.5,6.2,5.8,8.2,9.6c0.9,1.5,1.3,3.2,1.2,5c-0.2,1.7-1.7,3.4-3.4,3.3
		c-2.4-0.1-3.5-3.1-3.9-5.5l-2.3-12.8"/>
</g>
</svg>
